<?xml version="1.0" encoding="UTF-8" standalone="no"?>
<!-- Created with Inkscape (http://www.inkscape.org/) -->

<svg
   xmlns:dc="http://purl.org/dc/elements/1.1/"
   xmlns:cc="http://creativecommons.org/ns#"
   xmlns:rdf="http://www.w3.org/1999/02/22-rdf-syntax-ns#"
   xmlns:svg="http://www.w3.org/2000/svg"
   xmlns="http://www.w3.org/2000/svg"
   xmlns:sodipodi="http://sodipodi.sourceforge.net/DTD/sodipodi-0.dtd"
   xmlns:inkscape="http://www.inkscape.org/namespaces/inkscape"
   width="250.49757"
   height="191.2019"
   id="svg1901"
   sodipodi:version="0.32"
   inkscape:version="0.48.0 r9654"
   sodipodi:docname="lamanlapsi.svg"
   version="1.1">
  <defs
     id="defs1903" />
  <sodipodi:namedview
     id="base"
     pagecolor="#ffffff"
     bordercolor="#666666"
     borderopacity="1.0"
     inkscape:pageopacity="0.0"
     inkscape:pageshadow="2"
     inkscape:zoom="1"
     inkscape:cx="415.6042"
     inkscape:cy="7.3561305"
     inkscape:document-units="px"
     inkscape:current-layer="layer1"
     inkscape:window-width="1216"
     inkscape:window-height="873"
     inkscape:window-x="177"
     inkscape:window-y="0"
     showgrid="false"
     showguides="true"
     inkscape:guide-bbox="true"
     inkscape:window-maximized="0"
     fit-margin-top="0"
     fit-margin-left="0"
     fit-margin-right="0"
     fit-margin-bottom="0" />
  <metadata
     id="metadata1906">
    <rdf:RDF>
      <cc:Work
         rdf:about="">
        <dc:format>image/svg+xml</dc:format>
        <dc:type
           rdf:resource="http://purl.org/dc/dcmitype/StillImage" />
        <dc:title></dc:title>
      </cc:Work>
    </rdf:RDF>
  </metadata>
  <g
     inkscape:label="Taso 1"
     inkscape:groupmode="layer"
     id="layer1"
     transform="translate(-188.3336,-74.761513)">
    <path
       style="fill:#000000"
       d="m 194.7041,258.34542 c -2.1106,-1.5838 -2.16183,-2.03319 -2.88538,-3.36512 -0.72355,-1.33193 -1.49118,-3.44927 -1.82953,-3.71565 -0.33835,-0.26639 -1.13902,-3.0444 -1.65559,-7.1629 l 0.27523,-7.48817 3.47148,-7.04199 c 2.11144,-4.28311 7.45838,-9.35091 11.05279,-12.34436 7.64558,-6.36727 7.58744,-6.29503 8.98745,-11.16515 0.61263,-2.13109 2.14683,-6.50864 3.40935,-9.7279 1.26251,-3.21925 2.99021,-10.62963 3.83932,-16.46751 2.46831,-16.97042 12.28724,-41.39144 18.35931,-45.66208 1.65213,-1.162 6.41124,-5.17311 10.5758,-8.91359 4.16455,-3.74048 9.7639,-7.87684 12.44298,-9.19191 2.67908,-1.31507 7.21295,-4.18422 10.07527,-6.37588 2.86232,-2.19167 7.56069,-5.32738 10.44081,-6.96824 2.88013,-1.64086 7.06346,-4.568457 9.29629,-6.505773 2.23284,-1.937317 5.15784,-4.402601 6.5,-5.478415 3.09386,-2.479872 13.02106,-7.06257 19.1438,-8.837352 2.58693,-0.749872 5.45511,-2.091452 6.37373,-2.981299 2.09202,-2.026502 8.03973,-3.209716 26.42277,-4.024694 20.65725,-0.915807 29.40853,1.772751 46.55978,12.758224 6.46969,4.143867 9.94554,7.319783 29.66101,27.101519 10.13343,10.16749 14.26193,18.5249 13.52776,27.38454 -0.60298,7.27655 -3.51296,13.56119 -8.34497,18.02246 -1.93371,1.78535 -9.90308,9.37152 -17.70971,16.85816 -12.97019,12.43854 -15.01288,14.00107 -23.69387,18.12417 -15.99534,7.59712 -23.72775,7.95718 -37.21801,1.73308 l -5.78199,-2.66768 0,4.82131 c 0,10.77082 -13.1799,36.84488 -23.16993,45.83753 -13.11991,11.81005 -46.21064,20.40277 -59.55983,15.46599 -2.07363,-0.76687 -6.26874,-1.86964 -9.32247,-2.4506 -5.13507,-0.97693 -6.18695,-0.83614 -14,1.87386 -8.0282,2.78462 -10.33523,6.16887 -25.14996,6.17341 -15.47164,0.005 -16.55989,-4.96623 -20.09369,-7.61799 z m 27.99099,1.58513 c 0.99269,-0.51955 5.81123,-2.55504 10.70787,-4.52331 10.83462,-4.35512 17.90625,-4.74178 27.09702,-1.48159 7.07988,2.51141 20.26442,2.83576 27.49255,0.67633 2.4791,-0.74064 7.01522,-2.06454 10.08027,-2.94202 3.06505,-0.87746 7.20368,-2.66888 9.19695,-3.98091 1.99327,-1.31204 4.098,-2.38553 4.67718,-2.38553 0.57918,0 1.05305,-0.40653 1.05305,-0.9034 0,-0.49687 0.7875,-1.14748 1.75,-1.44581 0.9625,-0.29833 4.42177,-3.43999 7.68726,-6.98149 5.3983,-5.85457 5.91541,-6.7977 5.6966,-10.38984 -0.13236,-2.17292 -1.16795,-5.40417 -2.30132,-7.18056 -2.94429,-4.61473 -1.34981,-5.14888 2.58402,-0.86564 l 3.33578,3.63207 1.92906,-3.18934 c 1.06098,-1.75413 3.18817,-6.24067 4.72707,-9.97007 2.25055,-5.45402 2.68506,-7.71492 2.22071,-11.55516 -0.32113,-2.65583 -0.1335,-5.2924 0.42284,-5.94176 0.71913,-0.83936 -0.44241,-2.42369 -4.1341,-5.63886 -2.82382,-2.45935 -5.4838,-4.47154 -5.91106,-4.47154 -0.42726,0 -1.5389,-1.12662 -2.47031,-2.5036 -1.59437,-2.3571 -1.59203,-2.61219 0.04,-4.35905 0.95339,-1.02049 2.14201,-1.85544 2.64136,-1.85544 0.49935,0 4.5921,3.77767 9.09501,8.39483 6.24371,6.40213 9.61133,9.01671 14.1871,11.01467 13.14871,5.74122 18.69966,4.97261 39.5,-5.46941 3.1222,-1.56738 35.16092,-31.88019 37.48335,-35.46413 1.17152,-1.80789 1.72108,-4.75556 1.75105,-9.39208 0.039,-6.03802 -0.31344,-7.30418 -3.31133,-11.89535 -3.47114,-5.31595 -14.2155,-17.3052 -24.09328,-26.88484 -10.11085,-9.805658 -24.2775,-18.001668 -35.89368,-20.766022 -8.61805,-2.050875 -12.35867,-1.970969 -20.40301,0.435846 -5.20117,1.556162 -6.99158,1.745451 -8.09778,0.856147 -2.00813,-1.614398 -11.55366,-0.300513 -17.85246,2.457283 -2.79557,1.223982 -8.00786,3.459274 -11.58286,4.967311 -3.575,1.508047 -10.325,5.638769 -15,9.179392 -4.675,3.540633 -15.925,11.291963 -25,17.225203 -9.075,5.93322 -20.325,14.26359 -25,18.51192 -7.8448,7.12883 -8.28637,7.72595 -5.72856,7.74656 3.88761,0.0313 10.25764,4.39319 13.7626,9.42388 3.06641,4.40124 3.63467,6.0973 2.04288,6.0973 -1.05201,0 -7.07336,-5.62126 -7.08375,-6.61308 -0.0127,-1.20979 -6.46861,-4.77413 -9.6752,-5.34172 -3.0498,-0.53983 -3.2511,-0.37358 -4.84389,4.00059 -0.91401,2.51012 -2.30643,5.74027 -3.09426,7.17812 -3.5625,6.50185 -6.68889,18.31132 -7.89653,29.82793 -0.36265,3.45835 -1.32396,8.03535 -2.13624,10.17112 -3.88016,10.2022 -4.55258,14.76749 -1.79705,12.2007 0.5225,-0.48671 2.075,-1.03159 3.45,-1.21084 1.92089,-0.25043 2.5,0.10805 2.5,1.54755 0,1.39429 -1.36129,2.32925 -5.32238,3.65548 -5.70924,1.91155 -15.19189,8.56572 -22.66889,18.03742 -3.53553,4.47874 -3.91656,6.91808 -3.81798,12.51208 0.1127,6.39672 2.94611,10.00402 5.10683,11.89276 0.9262,0.80962 0.0832,0.35025 0.99398,1.1494 2.12965,1.86855 7.15797,4.81258 13.90353,4.26137 3.40732,-0.27843 7.00732,-0.93132 8,-1.45087 z m 58.12157,-6.96774 c -1.91303,-1.03704 -4.26976,-7.14416 -3.32709,-8.62164 1.3013,-2.0396 4.32555,0.90038 5.01959,4.87971 0.7932,4.54786 0.59648,4.98279 -1.6925,3.74193 z m -36.81668,-5.50707 c 0,-0.40909 1.125,-2.34754 2.5,-4.30765 1.375,-1.96012 2.5,-4.69123 2.5,-6.06914 0,-3.93944 4.6977,-12.12766 6.95783,-12.12766 3.23038,0 3.25212,1.67338 0.0769,5.91935 -2.00582,2.68222 -3.03473,5.20943 -3.03473,7.45388 0,4.04567 -4.16224,9.87504 -7.05089,9.87504 -1.07201,0 -1.94911,-0.33472 -1.94911,-0.74382 z m 50,-8.13074 c -5.87524,-2.64134 -26.59993,-19.55579 -28.73609,-23.45296 -0.91322,-1.66606 -2.95651,-6.73441 -4.54063,-11.26298 -3.20658,-9.16672 -3.68031,-15.36362 -2.30748,-30.18441 0.8374,-9.04031 0.95533,-9.37447 3.4755,-9.84781 1.50504,-0.28267 3.27662,0.0905 4.18744,0.88192 0.86831,0.75453 1.77995,2.60932 2.56602,2.60932 1.72079,0 12.34764,2.82893 13.82605,5.14234 1.90795,2.98556 -0.30612,1.98371 -6.38064,-1.09667 -3.49592,-1.77278 -7.49766,-2.43288 -8.35261,-2.11508 -1.69491,0.63003 -3.23142,11.23211 -3.05052,21.04891 0.0915,4.96299 3.78558,17.56231 6.81639,23.24826 1.56838,2.94234 19.71566,18.4317 24.26364,20.70989 4.8159,2.4124 10.44511,0.77535 12.62327,-3.67099 0.88531,-1.80723 1.59978,-4.0918 1.5877,-5.07683 -0.044,-3.5915 -3.92111,-9.96931 -8.5496,-14.06415 -2.60751,-2.30687 -6.6543,-5.94955 -8.99288,-8.09482 l -4.25196,-3.9005 -1.48511,0.23777 c -8.91279,1.42697 -11.75538,9.26158 -13.27197,8.69783 -0.88181,-0.32779 -1.42652,-0.22261 -1.42652,-0.63053 0,-1.62806 10.84504,-10.31595 11.18414,-9.40525 0.15091,0.4053 4.81586,-2.83824 4.81586,-3.5711 0,-0.73286 1.12025,-3.78623 2.48945,-6.78526 1.3692,-2.99903 2.4954,-5.77767 2.50267,-6.17476 0.007,-0.3971 0.72318,-2.79255 1.59092,-5.32322 1.31373,-3.83139 1.9901,-4.60122 4.04264,-4.60122 2.29954,0 2.42047,0.24376 1.8022,3.63255 -0.36451,1.99789 -1.46356,6.03001 -2.44233,8.96026 -0.97877,2.93025 -2.09576,7.21064 -2.48221,9.51196 l -0.70263,4.18422 6.84965,6.21671 c 3.7673,3.4192 7.17518,6.22228 7.57307,6.22907 0.39789,0.007 2.22934,2.17844 4.06989,4.82588 2.51848,3.6226 3.40259,6.0055 3.57338,9.63118 0.32721,6.94637 -2.65546,11.01609 -9.96937,13.60279 -6.83956,2.41894 -7.27538,2.41515 -12.89733,-0.11232 z m -16.91519,-24.44583 c -0.91893,-1.07257 -0.60454,-1.77734 1.51241,-3.39037 3.07483,-2.34291 4.40278,-2.57394 4.40278,-0.76598 0,1.11729 -2.01841,1.97485 -2.91391,1.97485 -0.18623,0 -2.36324,2.92621 -3.00128,2.1815 z m 6.76614,-5.50953 c 0,-1.71357 4.67467,-6.04719 6.06172,-5.58649 1.54405,0.51285 -1.21055,4.13196 -3.27618,4.51731 -0.97856,0.18255 -2.78554,1.84863 -2.78554,1.06918 z m 80.64905,-22.19677 c 0.33992,-0.53277 0.81648,-0.96868 1.05902,-0.96868 0.24254,0 0.44098,0.43591 0.44098,0.96868 0,0.53277 -0.47656,0.96868 -1.05902,0.96868 -0.58246,0 -0.7809,-0.43591 -0.44098,-0.96868 z m -8.5,-0.96868 c 0,-0.53277 0.45,-0.96868 1,-0.96868 0.55,0 1,0.43591 1,0.96868 0,0.53277 -0.45,0.96868 -1,0.96868 -0.55,0 -1,-0.43591 -1,-0.96868 z m 15,0.10364 c 0,-0.47578 0.675,-1.11595 1.5,-1.42262 0.91371,-0.33964 1.5,-0.002 1.5,0.86504 0,0.78244 -0.675,1.42262 -1.5,1.42262 -0.825,0 -1.5,-0.38927 -1.5,-0.86504 z m -24.5,-3.97835 c -0.33992,-0.53277 0.33508,-0.96868 1.5,-0.96868 1.16492,0 1.83992,0.43591 1.5,0.96868 -0.33992,0.53277 -1.01492,0.96868 -1.5,0.96868 -0.48508,0 -1.16008,-0.43591 -1.5,-0.96868 z m 32.01008,-0.0158 c 0.34546,-0.54146 1.04702,-0.7337 1.55902,-0.42717 1.38704,0.83038 1.12841,1.41165 -0.62812,1.41165 -0.85746,0 -1.27636,-0.44302 -0.9309,-0.98448 z m -13.51008,-2.89024 c 0,-0.53278 0.70156,-0.96868 1.55902,-0.96868 0.85746,0 1.2809,0.4359 0.94098,0.96868 -0.33992,0.53277 -1.04148,0.96867 -1.55902,0.96867 -0.51754,0 -0.94098,-0.4359 -0.94098,-0.96867 z m 23.15,0.0484 c 0.42971,-1.24876 1.80131,-1.47307 1.925,-0.31482 0.0413,0.38626 -0.465,0.87665 -1.125,1.08976 -0.66,0.21311 -1.02,-0.13561 -0.8,-0.77494 z m -33.15,-3.92314 c 0,-0.53278 0.70156,-0.96868 1.55902,-0.96868 0.85746,0 1.2809,0.4359 0.94098,0.96868 -0.33992,0.53277 -1.04148,0.96867 -1.55902,0.96867 -0.51754,0 -0.94098,-0.4359 -0.94098,-0.96867 z m 39,0.58797 c 0,-0.20938 0.675,-0.6316 1.5,-0.93828 0.825,-0.30666 1.5,-0.13534 1.5,0.3807 0,0.51606 -0.675,0.93828 -1.5,0.93828 -0.825,0 -1.5,-0.17132 -1.5,-0.3807 z m -51.42516,-1.43934 c -0.30984,-0.48564 0.10906,-1.13293 0.9309,-1.43842 0.82184,-0.30549 1.49426,-0.15894 1.49426,0.32567 0,1.31309 -1.7771,2.12848 -2.42516,1.11275 z m 40.22516,-1.27972 c 0.93333,-0.9041 1.46667,-0.9041 2.4,0 0.93333,0.90409 0.66667,1.16241 -1.2,1.16241 -1.86667,0 -2.13333,-0.25832 -1.2,-1.16241 z m 16.2,-1.74362 c 0,-0.53278 0.675,-0.96868 1.5,-0.96868 0.825,0 1.5,0.4359 1.5,0.96868 0,0.53277 -0.675,0.96867 -1.5,0.96867 -0.825,0 -1.5,-0.4359 -1.5,-0.96867 z m -75.1791,-3.14968 c -1.26163,-1.7163 -3.02062,-3.82453 -3.90886,-4.68495 -0.88823,-0.86041 -1.92094,-3.79863 -2.2949,-6.52937 -0.51137,-3.73419 -1.29665,-5.39073 -3.16777,-6.68245 -1.36832,-0.94462 -3.44805,-2.48031 -4.62162,-3.41266 -1.17357,-0.93235 -2.66147,-1.69519 -3.30645,-1.69519 -1.56085,0 -6.0368,-4.66692 -5.22767,-5.45072 0.96119,-0.93108 6.96187,2.86007 11.8128,6.69316 5.10771,4.03599 7.36324,7.11219 7.36324,11.72065 0,2.62654 1.09243,4.35152 3.3828,5.93132 1.61747,1.11567 1.99568,2.39017 2.3529,3.4804 0.40921,1.24892 2.52772,1.7769 3.46853,1.42719 0.87442,-0.32503 1.33311,-0.0898 1.10686,0.56773 -0.86495,2.51357 -4.65516,1.77016 -6.95986,-1.36511 z m 10.6791,0.24364 c 0.33992,-0.53277 1.26648,-0.96867 2.05902,-0.96867 0.79254,0 1.44098,0.4359 1.44098,0.96867 0,0.53278 -0.92656,0.96868 -2.05902,0.96868 -1.13246,0 -1.7809,-0.4359 -1.44098,-0.96868 z m 24.5,0 c 0,-0.53277 0.675,-0.96867 1.5,-0.96867 0.825,0 1.5,0.4359 1.5,0.96867 0,0.53278 -0.675,0.96868 -1.5,0.96868 -0.825,0 -1.5,-0.4359 -1.5,-0.96868 z m 17.69385,-0.61945 c -0.93324,-0.904 0.19452,-2.28658 1.86517,-2.28658 0.79254,0 1.44098,0.65386 1.44098,1.45302 0,1.45905 -2.11099,1.99129 -3.30615,0.83356 z m 13.94232,-1.79668 c 0.31537,-0.7961 0.97625,-1.20627 1.46861,-0.91151 1.41193,0.84529 1.04399,2.35897 -0.5734,2.35897 -0.89208,0 -1.24351,-0.56823 -0.89521,-1.44746 z m -54.18379,-2.98187 c 4.72479,-4.04055 11.78946,-7.62154 13.68484,-6.93665 0.79847,0.28852 -0.5019,1.31478 -3.14033,2.47837 -2.47671,1.09227 -5.8234,3.32086 -7.43709,4.95243 -1.61369,1.63157 -3.86229,2.94836 -4.99689,2.92617 -1.73806,-0.034 -1.44053,-0.57256 1.88947,-3.42032 z m 14.14418,1.67463 c -0.34605,-0.54238 -0.1419,-1.27787 0.45366,-1.63442 1.53748,-0.92045 2.52947,0.34034 1.24598,1.58363 -0.71818,0.69569 -1.27752,0.7124 -1.69964,0.0508 z m 46.90344,-1.12001 c -0.33992,-0.53278 0.33508,-0.96868 1.5,-0.96868 1.16492,0 1.83992,0.4359 1.5,0.96868 -0.33992,0.53277 -1.01492,0.96867 -1.5,0.96867 -0.48508,0 -1.16008,-0.4359 -1.5,-0.96867 z m 11.5,-0.96868 c 0,-0.53277 0.42344,-0.96868 0.94098,-0.96868 0.51754,0 1.2191,0.43591 1.55902,0.96868 0.33992,0.53277 -0.0835,0.96868 -0.94098,0.96868 -0.85746,0 -1.55902,-0.43591 -1.55902,-0.96868 z m -27.45729,-0.90174 c -0.73955,-1.15912 1.14162,-2.30762 2.4736,-1.51019 1.11836,0.66953 0.38417,2.41193 -1.01631,2.41193 -0.48508,0 -1.14086,-0.40579 -1.45729,-0.90174 z m -17.04271,-2.00429 c 0.33992,-0.53278 1.04148,-0.96868 1.55902,-0.96868 0.51754,0 0.94098,0.4359 0.94098,0.96868 0,0.53277 -0.70156,0.96867 -1.55902,0.96867 -0.85746,0 -1.2809,-0.4359 -0.94098,-0.96867 z m 39.95888,-1.03313 c -0.36253,-0.56821 -0.4085,-1.27593 -0.10214,-1.57269 0.82264,-0.79687 3.64326,0.44707 3.64326,1.60674 0,1.31474 -2.69711,1.28881 -3.54112,-0.034 z m -48.95888,-2.84158 c 0.33992,-0.53278 1.51803,-0.96868 2.61803,-0.96868 1.1,0 1.72189,0.4359 1.38197,0.96868 -0.33992,0.53277 -1.51803,0.96867 -2.61803,0.96867 -1.1,0 -1.72189,-0.4359 -1.38197,-0.96867 z m 61.99563,-0.97552 c -0.75471,-1.18291 1.98877,-2.35353 3.45648,-1.47485 0.57634,0.34504 1.04789,1.03753 1.04789,1.53886 0,1.22164 -3.7178,1.16881 -4.50437,-0.064 z m -73.49563,-0.77039 c 0,-2.86559 9.60178,-14.72161 11.92251,-14.72161 0.57166,0 1.33204,-1.19874 1.68974,-2.66387 0.91033,-3.72877 5.15575,-8.97529 7.18864,-8.88379 1.06105,0.0478 1.22519,0.26141 0.43709,0.56895 -0.69412,0.27086 -2.46568,2.96085 -3.93681,5.97775 -1.47112,3.01691 -5.0402,7.14052 -7.39113,9.27162 -2.35093,2.13109 -5.10115,5.10592 -6.11161,6.93483 -1.78447,3.22982 -3.79843,5.41505 -3.79843,3.51612 z m 22.75,-0.83299 c 0.6875,-0.26872 1.8125,-0.26872 2.5,0 0.6875,0.26873 0.125,0.4886 -1.25,0.4886 -1.375,0 -1.9375,-0.21987 -1.25,-0.4886 z m 11.25,-1.2156 c 4.57389,-2.31506 8.00649,-3.31589 7.9742,-2.32502 -0.0355,1.09022 -7.19282,4.19189 -9.55181,4.13934 -1.35832,-0.0302 -0.89541,-0.5626 1.57761,-1.81432 z m 47.5,-2.01757 c 0.33992,-0.53277 0.81648,-0.96868 1.05902,-0.96868 0.24254,0 0.44098,0.43591 0.44098,0.96868 0,0.53277 -0.47656,0.96868 -1.05902,0.96868 -0.58246,0 -0.7809,-0.43591 -0.44098,-0.96868 z m -94.75,-6.652 c -3.19549,-5.98535 -3.31853,-7.10582 -1.13483,-10.33418 0.88835,-1.31332 1.84996,-5.22113 2.13691,-8.68402 0.53278,-6.42933 1.53971,-8.0129 2.61763,-4.11664 1.20994,4.37345 0.57249,8.1086 -2.01279,11.79401 l -2.64307,3.7678 2.2435,3.97828 c 1.23392,2.18805 2.0858,5.05095 1.89307,6.36198 -0.30598,2.08138 -0.69919,1.73043 -3.10042,-2.76723 z m 87.27543,-6.88938 c -2.91234,-2.30249 -3.14673,-2.83396 -2.09183,-4.74331 1.33279,-2.41234 5.30268,-4.21798 7.48784,-3.40572 1.6742,0.62233 3.23028,4.6497 3.14082,8.12892 -0.0872,3.39099 -4.26067,3.40082 -8.53683,0.0202 z m -25.11521,0.1424 c 0.53932,-0.97618 1.68016,-2.33727 2.53518,-3.02465 2.33991,-1.88111 2.08154,1.13126 -0.27414,3.19635 -2.41584,2.11783 -3.48128,2.03691 -2.26104,-0.1717 z m 7.23653,-3.92886 c -1.01828,0.60908 -1.08821,-1.31036 -0.30459,-2.7287 1.35811,-2.45816 4.03698,-4.60037 4.81292,-3.84874 0.49752,0.48195 -1.92871,3.40598 -2.59845,4.15256 -0.11169,-0.008 -0.90042,1.82108 -1.90988,2.42488 z m -95.47989,-8.64785 c -0.90371,-0.96731 -1.93248,-3.25581 -2.28616,-5.08556 -0.35368,-1.82974 -1.51338,-4.73198 -2.57711,-6.44942 -1.52098,-2.45569 -1.78828,-4.06428 -1.25152,-7.53155 0.55838,-3.60693 0.93406,-4.20673 2.06524,-3.29736 0.76048,0.61138 1.38269,2.78858 1.38269,4.83824 0,2.04965 0.9,5.27881 2,7.17593 1.1,1.89712 2,4.32319 2,5.39127 0,1.06809 0.72675,3.0164 1.61501,4.32958 1.36954,2.02472 1.3931,2.38762 0.15499,2.38762 -0.80301,0 -2.19942,-0.79144 -3.10314,-1.75875 z m 103.08314,-0.73295 c -1.13032,-1.11106 -0.90003,-6.02224 0.31653,-6.75057 1.47444,-0.88271 1.57451,-0.49279 0.96591,3.76381 -0.29284,2.04819 -0.86994,3.39223 -1.28244,2.98676 z M 345.98901,101.425 c -1.19238,-2.158191 -1.11331,-2.748386 0.68135,-5.085553 2.45945,-3.202923 5.60583,-3.810545 8.90118,-1.718986 1.84542,1.171296 2.33993,2.178411 1.98931,4.051426 -1.00131,5.348933 -9.07626,7.270093 -11.57184,2.753113 z"
       id="path3100"
       inkscape:connector-curvature="0"
       sodipodi:nodetypes="sscscsssssssssssssssssssssscssssscsssssssssssssscssssssssssssssssssssssssssscsssssssssssssssssssssssssssssssscsssssssscsscsssssscssssscscsssssssssssssssssssssssssssssssssscsssssssscsssssssscssscsscssssssssssssssssssssscsssssssssssssssssssssssssssssssssssssssssssssssscssccsssssssssssscsssssccscsccssssssssssscssscsssccssssssccssssscsssssssssssssss" />
  </g>
</svg>
