<?xml version="1.0" encoding="UTF-8" standalone="no"?>
<!-- Created with Inkscape (http://www.inkscape.org/) -->

<svg
   xmlns:dc="http://purl.org/dc/elements/1.1/"
   xmlns:cc="http://creativecommons.org/ns#"
   xmlns:rdf="http://www.w3.org/1999/02/22-rdf-syntax-ns#"
   xmlns:svg="http://www.w3.org/2000/svg"
   xmlns="http://www.w3.org/2000/svg"
   xmlns:sodipodi="http://sodipodi.sourceforge.net/DTD/sodipodi-0.dtd"
   xmlns:inkscape="http://www.inkscape.org/namespaces/inkscape"
   width="582.25"
   height="250.82143"
   id="svg2"
   version="1.1"
   inkscape:version="0.48.0 r9654"
   sodipodi:docname="lamantiinit.svg">
  <defs
     id="defs4">
    <inkscape:path-effect
       effect="spiro"
       id="path-effect3025"
       is_visible="true" />
  </defs>
  <sodipodi:namedview
     id="base"
     pagecolor="#ffffff"
     bordercolor="#666666"
     borderopacity="1.0"
     inkscape:pageopacity="0.0"
     inkscape:pageshadow="2"
     inkscape:zoom="0.98994949"
     inkscape:cx="287.23606"
     inkscape:cy="55.025352"
     inkscape:document-units="px"
     inkscape:current-layer="layer2"
     showgrid="false"
     inkscape:window-width="1122"
     inkscape:window-height="986"
     inkscape:window-x="687"
     inkscape:window-y="6"
     inkscape:window-maximized="0"
     fit-margin-top="0"
     fit-margin-left="0"
     fit-margin-right="0"
     fit-margin-bottom="0" />
  <metadata
     id="metadata7">
    <rdf:RDF>
      <cc:Work
         rdf:about="">
        <dc:format>image/svg+xml</dc:format>
        <dc:type
           rdf:resource="http://purl.org/dc/dcmitype/StillImage" />
        <dc:title></dc:title>
      </cc:Work>
    </rdf:RDF>
  </metadata>
  <g
     inkscape:groupmode="layer"
     id="layer2"
     inkscape:label="Layer"
     transform="translate(-2,-1.86218)">
    <g
       id="g3059"
       transform="translate(-29.285714,-25.714286)">
      <path
         inkscape:connector-curvature="0"
         id="path2997"
         d="m 366.93791,68.852409 c 0,0 10.2278,-9.343911 18.94036,-10.227794 8.71257,-0.883884 5.3033,-2.020306 18.81409,-0.883884 13.51079,1.136422 18.8141,11.743023 19.82425,13.258252 1.01015,1.515229 3.53553,6.81853 2.77792,15.909903 -0.75762,9.091373 -11.36422,16.541244 -14.26841,17.803934 -2.90419,1.2627 -15.02602,3.40927 -20.58186,3.40927 -5.55583,0 -18.18274,-1.51523 -21.2132,-3.40927 -3.03046,-1.89403 -8.83883,-7.323601 -9.97526,-10.859135 -1.13642,-3.535534 -1.64149,-11.111678 -0.3788,-14.142136 1.26269,-3.030458 6.06091,-10.85914 6.06091,-10.85914 z"
         style="fill:none;stroke:#000000;stroke-width:1px;stroke-linecap:butt;stroke-linejoin:miter;stroke-opacity:1" />
      <path
         inkscape:connector-curvature="0"
         id="path2999"
         d="m 392.06546,83.247082 1.51523,-0.757614 1.38896,0.378807 0.69448,0.69448 0.12627,1.515229 -1.51523,1.515229 -1.19956,0.631345 -1.19956,0 -0.56821,-0.505076 0.56821,-2.335978 z"
         style="fill:none;stroke:#000000;stroke-width:1px;stroke-linecap:butt;stroke-linejoin:miter;stroke-opacity:1" />
      <path
         inkscape:connector-curvature="0"
         id="path3001"
         d="m 392.94934,83.815293 0.94702,-0.441942 1.13642,0.757615 -0.31567,1.325825 -1.4521,1.073287 -1.19955,-0.69448 z"
         style="fill:none;stroke:#000000;stroke-width:1px;stroke-linecap:butt;stroke-linejoin:miter;stroke-opacity:1" />
      <path
         inkscape:connector-curvature="0"
         id="path3003"
         d="m 378.57143,60.576466 c 0,0 -18.21429,-11.964286 -25,-15.357143 -6.78571,-3.392857 -24.64286,-10 -30,-10.714285 -5.35714,-0.714286 -22.67857,-4.821429 -30.35714,-5.178572 -7.67858,-0.357143 -28.92858,-1.25 -28.92858,-1.25 l -22.85714,1.25 -32.14286,2.5 -17.14285,2.678572 -20.89286,5.178571 -16.96429,5.535714 -3.75,1.607143 -16.78571,9.464286 -11.60714,8.75 -9.28572,8.571429 -9.82143,12.321428 -16.607138,20.000001 -10.535715,9.10714 -6.25,4.82143 -8.392857,3.57143 -18.75,6.25 -4.464286,1.42857 L 35,134.32647 l -1.964286,4.46428 -1.25,7.85714 0.714286,8.75001 3.928572,8.03571 3.75,5 4.464285,4.10714 6.428572,3.03572 5.892857,2.14285 6.964286,1.60715 5.892857,2.67857 3.392857,3.21428 3.75,4.82143 8.75,16.25 4.464286,7.85715 3.214285,8.03571 10.714283,20.17857 3.21429,4.46429 6.42857,5 6.96429,6.07143 6.60714,5.53571 5.89286,3.39286 7.85714,2.5 8.39286,2.5 11.25,1.42857 7.5,1.60714 5.17857,1.60714 10.71428,1.25 10.53572,0 8.39285,0.17858 8.75,-1.60715 6.78572,-0.89285 6.60714,-0.71429 11.96429,-3.57143 10,-3.03571 13.03571,-2.85715 14.82143,-3.21428 7.5,-1.78572 5.89286,-2.14285 11.78571,-3.21429 6.78572,-3.21428 8.39285,-4.64286 8.21429,-5.89286 6.78571,-6.25 c 0,0 4.28572,-5 5,-5.53571 0.71429,-0.53572 3.21429,-4.82143 3.21429,-4.82143 l -2.85714,-4.28572 -2.85715,-9.10714 -0.17857,-10.89286 1.42857,-10 2.67857,-7.32142 2.85715,-4.64286 3.21428,-4.82143"
         style="fill:none;stroke:#000000;stroke-width:1px;stroke-linecap:butt;stroke-linejoin:miter;stroke-opacity:1" />
      <path
         inkscape:connector-curvature="0"
         id="path3005"
         d="m 338.03571,224.86218 4.82143,6.25 7.32143,5.89286 6.07143,2.85714 6.96429,3.03572 6.25,1.60714 5.53571,1.07143 6.25,-1.07143 7.5,-2.67857 8.57143,-7.32143 6.42857,-8.75 4.46429,-7.85714 6.42857,-13.92858 3.57143,-7.67857 3.75,-8.03571 3.21428,2.85714 3.21429,3.92857 4.10714,4.46429 4.46429,3.75 6.96428,3.57143 7.14286,3.03571 6.78571,1.42857 6.96429,0.53572 12.85714,-0.71429 18.03572,-2.85714 8.92857,-0.89286 7.67857,-1.96428 10.71429,-4.28572 11.07142,-4.10714 5.35715,-2.32143 9.28571,-5.35714 7.5,-4.82143 9.82143,-6.60714 8.03571,-6.25 7.32143,-6.25 9.10715,-6.78572 6.96428,-6.25 4.82143,-5.17857 2.14286,-3.92857 3.57143,-5 2.85714,-4.28572 2.14286,-6.07143 -1.60715,-2.32142 -1.96428,-1.25 -3.92857,-0.17858 -8.75,2.67858 -4.10715,2.14285 -7.32143,4.46429 -8.21428,4.82143 -8.57143,6.25 -13.03571,8.39286 -15,7.32142 -19.46429,10.17858 -15.71429,6.25 -5.89285,1.25 -7.32143,0.89285 -13.57143,-0.53571 -13.03571,-0.89286 -11.60715,-2.14286 -6.96428,-2.5 -4.82143,-3.39285 -3.21429,-3.39286 -1.60714,-2.5 -1.42857,-1.60714 -1.42857,-1.42857"
         style="fill:none;stroke:#000000;stroke-width:1px;stroke-linecap:butt;stroke-linejoin:miter;stroke-opacity:1" />
      <path
         inkscape:connector-curvature="0"
         id="path3007"
         d="m 520.85991,124.66334 5.17703,1.51523 9.09137,1.51522 8.96511,0.37881 13.13198,0.37881 10.10152,-1.51523 8.20749,-3.15673 6.9448,-3.03045 5.3033,-3.78808 3.91434,-4.79822"
         style="fill:none;stroke:#000000;stroke-width:1px;stroke-linecap:butt;stroke-linejoin:miter;stroke-opacity:1" />
      <path
         inkscape:connector-curvature="0"
         id="path3009"
         d="m 515.55661,104.08148 7.57614,0.50508 9.09137,-0.25254 10.10153,0.25254 10.10152,0.88388 7.07107,0.37881 7.07107,-0.12627 5.80838,-0.50508 6.06091,-1.51523 6.31346,-3.15672"
         style="fill:none;stroke:#000000;stroke-width:1px;stroke-linecap:butt;stroke-linejoin:miter;stroke-opacity:1" />
      <path
         inkscape:connector-curvature="0"
         id="path3011"
         d="m 596.24254,126.93618 6.06092,-4.79822 4.16688,-5.55584 3.15672,-4.29315 0.12627,-4.41942 -0.25254,-6.43972 -2.27284,-6.060917 -3.03046,-4.04061 -4.79822,-1.136421 -4.67196,1.388959 -4.16688,2.020305 -3.78807,5.42957 -0.37881,4.040614 0,5.6821 1.89404,4.54569 3.53553,2.27284 3.40927,1.51523 5.05076,-1.13642 2.77792,-1.89403 2.02031,-3.03046 1.64149,-3.78807 1.13643,-4.9245 -0.63135,-4.671953 -2.27284,-2.904189 -2.65165,-1.136422 -2.90419,0.757615 -3.40927,2.146574 -2.0203,2.77792 -0.37881,3.282995 0.50508,2.39911 2.0203,1.76777 3.91434,-0.25254 1.76777,-0.37881 0.88388,-4.04061 -1.51523,-1.38896 -1.13642,-1.136417 -0.88388,-1.010153 -2.90419,0.883884 -2.0203,2.272846 0.25253,1.64149 2.27285,0.63135 -1.76777,2.02031 1.51523,0.75761 3.15673,-2.77792 -2.65165,-0.25254 3.53553,-2.77792 -0.37881,1.76777 -1.01015,1.51523 1.51523,-2.14658 -0.12627,-1.01015 1.76777,-0.63134 1.76776,1.26269 0.88389,1.51523"
         style="fill:none;stroke:#000000;stroke-width:1px;stroke-linecap:butt;stroke-linejoin:miter;stroke-opacity:1" />
      <path
         inkscape:connector-curvature="0"
         id="path3013"
         d="m 597.00016,106.35432 -0.37881,1.76777 c 0,0 0.12627,1.51523 1.01015,1.76777 0.88388,0.25253 1.51523,0 2.14657,-0.75762 0.63135,-0.75761 1.76777,-2.90419 1.76777,-2.90419"
         style="fill:none;stroke:#000000;stroke-width:1px;stroke-linecap:butt;stroke-linejoin:miter;stroke-opacity:1" />
      <path
         inkscape:connector-curvature="0"
         id="path3015"
         d="m 594.60104,116.70839 c 0,0 2.27285,1.64149 3.78807,1.64149 1.51523,0 4.54569,-0.25253 6.06092,-0.63134 1.51523,-0.37881 2.27284,-1.13642 2.27284,-1.13642"
         style="fill:none;stroke:#000000;stroke-width:1px;stroke-linecap:butt;stroke-linejoin:miter;stroke-opacity:1" />
      <path
         inkscape:connector-curvature="0"
         id="path3017"
         d="m 587.90878,112.41524 -3.03046,-3.91434 c 0,0 -1.51522,-4.04061 -1.89403,-6.06092 -0.37881,-2.0203 -0.25254,-5.808376 1.13642,-7.702412 1.38896,-1.894036 5.68211,-4.924494 7.32361,-5.555839 1.64149,-0.631345 7.70241,-2.146574 9.59645,-2.020305 1.89403,0.126269 4.67195,0.252538 6.69226,1.515229 2.0203,1.262691 2.77792,3.282996 3.40926,5.050763 0.63135,1.767767 1.13642,6.818534 1.26269,8.460024 0.12627,1.6415 -0.75761,6.31346 -1.51523,7.57615 -0.75761,1.26269 -1.51523,3.28299 -1.51523,3.28299"
         style="fill:none;stroke:#000000;stroke-width:1px;stroke-linecap:butt;stroke-linejoin:miter;stroke-opacity:1" />
      <path
         inkscape:connector-curvature="0"
         id="path3019"
         d="m 596.36881,90.823227 c -4.54569,4.04061 -4.41942,3.788072 -5.42957,5.42957 -1.01015,1.641498 -1.89404,5.303303 -1.89404,7.197333 0,1.89404 1.38896,5.42957 2.90419,6.9448 1.51523,1.51523 4.79823,4.04061 6.81853,4.04061 2.02031,0 5.17703,0.12627 7.32361,-1.89403 2.14657,-2.02031 4.67195,-5.68211 5.3033,-7.57615 0.63134,-1.89403 1.38896,-5.934644 0.88388,-6.944796 -0.50507,-1.010153 -3.03046,-4.166879 -4.67195,-5.177032 -1.6415,-1.010152 -3.91434,-2.146574 -6.18719,-2.272843 -2.27284,-0.126269 -5.05076,0.252538 -5.05076,0.252538 z"
         style="fill:none;stroke:#000000;stroke-width:1px;stroke-linecap:butt;stroke-linejoin:miter;stroke-opacity:1" />
      <path
         inkscape:connector-curvature="0"
         id="path3021"
         d="m 605.83899,87.919038 c 0,0 -5.3033,-2.904188 -10.48033,-3.535533 -5.17703,-0.631346 -23.86486,-3.156727 -26.89531,-3.409265 -3.03046,-0.252538 -16.28871,-1.767767 -19.1929,-1.767767 -2.90419,0 -15.90991,-0.378808 -20.32932,0 -4.41942,0.378807 -13.63706,1.894036 -16.41498,2.020305 -2.77792,0.126269 -21.84455,2.904188 -27.14785,3.535534 -5.3033,0.631345 -16.03617,1.388959 -19.1929,1.26269 -3.15673,-0.126269 -13.00571,-0.757614 -16.03617,-0.631345 -3.03046,0.126269 -8.71257,0.252538 -11.86929,0.631345 -3.15673,0.378808 -11.23795,1.894036 -11.23795,1.894036"
         style="fill:none;stroke:#000000;stroke-width:1px;stroke-linecap:butt;stroke-linejoin:miter;stroke-opacity:1" />
      <path
         inkscape:connector-curvature="0"
         id="path3027"
         d="m 328.57143,252.18361 6.42857,-6.25 c 0,0 4.82143,-4.28571 6.60714,-6.25 1.78572,-1.96429 5.71429,-6.42857 7.14286,-9.46429 1.42857,-3.03571 4.10714,-7.32142 4.46429,-9.64285 0.35714,-2.32143 0,-7.67857 0,-7.67857"
         style="fill:none;stroke:#000000;stroke-width:1px;stroke-linecap:butt;stroke-linejoin:miter;stroke-opacity:1" />
      <path
         inkscape:connector-curvature="0"
         id="path3029"
         d="m 354.28572,264.1479 7.5,-10.53572 c 0,0 3.92857,-6.96428 4.82142,-8.57143 0.89286,-1.60714 3.03572,-5.17857 3.21429,-6.78571 0.17857,-1.60714 0.53571,-4.82143 0.53571,-4.82143"
         style="fill:none;stroke:#000000;stroke-width:1px;stroke-linecap:butt;stroke-linejoin:miter;stroke-opacity:1" />
      <path
         inkscape:connector-curvature="0"
         id="path3031"
         d="m 396.07143,210.57647 c 0,0 2.32143,2.5 2.67857,4.46428 0.35714,1.96429 1.07143,6.78572 1.07143,10 0,3.21429 -1.25,10.53572 -1.60714,12.14286 -0.35715,1.60714 -2.14286,8.92857 -3.21429,11.42857 -1.07143,2.5 -4.46428,10.17857 -4.46428,10.17857 l -4.64286,5.53572"
         style="fill:none;stroke:#000000;stroke-width:1px;stroke-linecap:butt;stroke-linejoin:miter;stroke-opacity:1" />
      <path
         inkscape:connector-curvature="0"
         id="path3033"
         d="m 340.71429,208.25504 c 0,0 -1.42857,0.35714 -2.5,-0.89286 -1.07143,-1.25 -1.78572,-1.96428 -0.89286,-4.28571 0.89286,-2.32143 1.96429,-3.03572 3.57143,-4.64286 1.60714,-1.60714 2.5,0.35714 2.5,0.35714 l -1.96429,-2.67857"
         style="fill:none;stroke:#000000;stroke-width:1px;stroke-linecap:butt;stroke-linejoin:miter;stroke-opacity:1" />
      <path
         inkscape:connector-curvature="0"
         id="path3035"
         d="m 346.07143,208.79075 c -1.96429,2.14286 -2.32143,4.10715 -2.14286,5.89286 0.17857,1.78571 1.25,3.21429 2.32143,3.75"
         style="fill:none;stroke:#000000;stroke-width:1px;stroke-linecap:butt;stroke-linejoin:miter;stroke-opacity:1" />
      <path
         inkscape:connector-curvature="0"
         id="path3037"
         d="m 354.28572,201.82647 -6.25,0.17857 1.42857,-1.78572"
         style="fill:none;stroke:#000000;stroke-width:1px;stroke-linecap:butt;stroke-linejoin:miter;stroke-opacity:1" />
      <path
         inkscape:connector-curvature="0"
         id="path3039"
         d="m 359.28572,222.18361 c 3.39285,0.35714 3.57142,0.35714 3.57142,0.35714"
         style="fill:none;stroke:#000000;stroke-width:1px;stroke-linecap:butt;stroke-linejoin:miter;stroke-opacity:1" />
      <path
         inkscape:connector-curvature="0"
         id="path3041"
         d="m 361.07143,223.61218 2.67857,1.96429"
         style="fill:none;stroke:#000000;stroke-width:1px;stroke-linecap:butt;stroke-linejoin:miter;stroke-opacity:1" />
      <path
         inkscape:connector-curvature="0"
         id="path3043"
         d="m 377.67857,229.50504 c 0,0 2.32143,-3.57143 3.75,-4.64286 1.42857,-1.07143 2.67857,-3.92857 4.82143,-4.82143 2.14286,-0.89285 3.39286,-1.60714 3.39286,-1.60714"
         style="fill:none;stroke:#000000;stroke-width:1px;stroke-linecap:butt;stroke-linejoin:miter;stroke-opacity:1" />
      <path
         inkscape:connector-curvature="0"
         id="path3045"
         d="M 373.03572,220.04075 376.25,214.68361"
         style="fill:none;stroke:#000000;stroke-width:1px;stroke-linecap:butt;stroke-linejoin:miter;stroke-opacity:1" />
      <path
         inkscape:connector-curvature="0"
         id="path3047"
         d="m 378.39286,203.96932 c 0,0 0.53571,-3.03571 0.89286,-4.64285 0.35714,-1.60715 1.25,-4.46429 1.25,-4.46429"
         style="fill:none;stroke:#000000;stroke-width:1px;stroke-linecap:butt;stroke-linejoin:miter;stroke-opacity:1" />
      <path
         inkscape:connector-curvature="0"
         id="path3049"
         d="m 398.75,213.25504 3.92857,-3.92857 2.5,-4.10715"
         style="fill:none;stroke:#000000;stroke-width:1px;stroke-linecap:butt;stroke-linejoin:miter;stroke-opacity:1" />
      <path
         inkscape:connector-curvature="0"
         id="path3051"
         d="m 401.60714,189.86218 c 0,0 0.89286,-0.35714 2.5,0.17857 1.60715,0.53572 3.21429,5.17857 3.21429,5.17857 l 0,2.5"
         style="fill:none;stroke:#000000;stroke-width:1px;stroke-linecap:butt;stroke-linejoin:miter;stroke-opacity:1" />
      <path
         inkscape:connector-curvature="0"
         id="path3053"
         d="m 374.10714,180.93361 c 0,0 0.71429,1.07143 3.03572,2.14286 2.32143,1.07143 6.07143,1.42857 6.07143,1.42857"
         style="fill:none;stroke:#000000;stroke-width:1px;stroke-linecap:butt;stroke-linejoin:miter;stroke-opacity:1" />
      <path
         inkscape:connector-curvature="0"
         id="path3055"
         d="m 366.42857,203.43361 c -0.35714,-1.78571 -0.35714,-2.85714 0,-4.28571 0.35715,-1.42858 2.32143,-4.64286 3.92857,-5.35715 1.60715,-0.71428 5,-1.25 6.25,-1.07143"
         style="fill:none;stroke:#000000;stroke-width:1px;stroke-linecap:butt;stroke-linejoin:miter;stroke-opacity:1" />
      <path
         inkscape:connector-curvature="0"
         id="path3057"
         d="m 353.75,186.82647 c -0.71428,-0.89286 -2.32143,-0.35715 -1.07143,-1.60715 1.25,-1.25 4.10715,-1.60714 5.53572,-2.14285 1.42857,-0.53572 4.10714,-1.25 4.10714,-1.25"
         style="fill:none;stroke:#000000;stroke-width:1px;stroke-linecap:butt;stroke-linejoin:miter;stroke-opacity:1" />
    </g>
    <g
       id="g4219"
       transform="translate(7.0710678,1.0101525)">
      <path
         inkscape:connector-curvature="0"
         id="path2999-3"
         d="m 81.691461,165.78913 0.229589,-0.29062 0.31009,-0.054 0.201932,0.073 0.165653,0.2882 -0.15926,0.44057 -0.178828,0.23633 -0.237437,0.11135 -0.159355,-0.0472 -0.104381,-0.51513 z"
         style="fill:#ffffff;fill-opacity:1;stroke:#000000;stroke-width:1;stroke-linecap:butt;stroke-linejoin:miter;stroke-miterlimit:4;stroke-opacity:1;stroke-dasharray:none" />
      <path
         sodipodi:nodetypes="ccsscccccccccccccccccccccccccccccccccccccccccccccccccccccccccccccccccccccc"
         inkscape:connector-curvature="0"
         id="path3003-6"
         d="m 76.915981,162.55445 c 0,0 -4.715916,-0.67732 -6.374014,-0.71897 -1.658098,-0.0416 -5.806018,0.30824 -6.932698,0.66417 -1.126679,0.35592 -4.936484,1.15092 -6.489505,1.79304 -1.553023,0.64211 -5.842051,2.43803 -5.842051,2.43803 l -4.408217,2.36926 -6.130159,3.47867 -3.144538,2.12157 -3.654724,2.96451 -2.843964,2.67052 -0.593069,0.66623 -2.443926,3.43155 -1.485207,2.80944 -1.042291,2.55859 -0.800213,3.35058 -1.430546,5.50038 -1.239979,2.78066 -0.789526,1.53453 -4.008284,3.45032 -6.434686,3.51338 -0.751029,0.69718 -0.3024929,0.91804 0.02562,1.06598 0.4819609,1.67125 1.310794,1.48707 2.416421,0.69015 3.34927,-0.34058 3.854197,-0.40504 1.554254,0.004 1.365332,-0.12289 1.527676,-0.32839 1.415063,-0.0169 0.969952,0.32126 1.189836,0.60623 3.240436,2.40419 1.613026,1.1408 1.382181,1.29217 3.99393,2.99946 1.050646,0.58526 1.736599,0.39291 1.942098,0.55526 1.821674,0.48237 1.481371,0.12454 1.787289,-0.23454 1.893326,-0.28428 2.359397,-0.76157 1.633713,-0.37812 1.174218,-0.16262 2.236782,-0.74719 2.0854,-0.97803 1.677826,-0.74377 1.58275,-1.13038 1.260256,-0.80664 1.241484,-0.75473 2.036629,-1.81757 1.697555,-1.52918 2.315009,-1.77564 2.635314,-2.0121 1.318752,-1.04969 0.967489,-0.97118 2.034435,-1.7303 1.044756,-1.26614 1.230251,-1.69811 1.078868,-1.92894 0.762948,-1.86702 c 0,0 0.384147,-1.38753 0.475798,-1.55987 0.09165,-0.17235 0.188649,-1.25272 0.188649,-1.25272 l -0.963376,-0.58307 -1.410953,-1.5374 -1.046534,-2.13952 -0.645539,-2.11198 -0.149464,-1.69782 0.134535,-1.18422 0.188647,-1.25272"
         style="fill:#ffffff;fill-opacity:1;stroke:#000000;stroke-width:1;stroke-linecap:butt;stroke-linejoin:miter;stroke-miterlimit:4;stroke-opacity:1;stroke-dasharray:none" />
      <path
         inkscape:connector-curvature="0"
         id="path3005-1"
         d="m 84.143205,198.83549 1.534526,0.78953 1.996213,0.48675 1.466985,0.002 1.660292,-0.0456 1.386293,-0.26208 1.195178,-0.3018 1.13764,-0.79227 1.235869,-1.22641 1.016945,-2.24487 0.46018,-2.32871 0.154263,-1.96963 -0.02055,-3.35374 -0.0059,-1.8514 -0.0037,-1.93867 0.901452,0.26715 1.000915,0.47922 1.227374,0.50238 1.23176,0.32783 1.71002,0.0604 1.69564,-0.0622 1.47575,-0.34715 1.42822,-0.54046 2.47858,-1.33492 3.3047,-2.23979 1.6844,-1.00557 1.33752,-1.10161 1.7229,-1.84291 1.81017,-1.84072 0.84487,-0.9568 1.34067,-1.92237 1.03695,-1.65056 1.33067,-2.21952 1.01037,-1.98306 0.86899,-1.91675 1.17271,-2.18856 0.79829,-1.8836 0.47361,-1.4726 0.0595,-0.97653 0.24276,-1.32122 0.16769,-1.11353 -0.13947,-1.40068 -0.53361,-0.3103 -0.50484,-0.0651 -0.79418,0.32934 -1.48329,1.34246 -0.61403,0.80541 -1.03475,1.5633 -1.17833,1.71687 -1.11641,2.03279 -1.80112,2.87136 -2.2894,2.84163 -2.9078,3.82159 -2.53024,2.69586 -1.05037,0.79446 -1.36629,0.85638 -2.73601,1.1538 -2.66312,1.03338 -2.4964,0.65335 -1.61056,0.15166 -1.269299,-0.224 -0.951185,-0.37318 -0.550187,-0.34565 -0.431957,-0.1855 -0.41538,-0.15015"
         style="fill:#ffffff;fill-opacity:1;stroke:#000000;stroke-width:1;stroke-linecap:butt;stroke-linejoin:miter;stroke-miterlimit:4;stroke-opacity:1;stroke-dasharray:none" />
      <path
         inkscape:connector-curvature="0"
         id="path3007-9"
         d="m 111.02923,162.03087 1.16538,-0.18067 1.94017,-0.54404 1.80969,-0.75725 2.63446,-1.14407 1.85879,-1.23765 1.33152,-1.38673 1.09331,-1.24453 0.69807,-1.2421 0.32937,-1.31311"
         style="fill:none;stroke:#000000;stroke-width:1;stroke-linecap:butt;stroke-linejoin:miter;stroke-miterlimit:4;stroke-opacity:1;stroke-dasharray:none" />
      <path
         inkscape:connector-curvature="0"
         id="path3009-9"
         d="m 108.06889,158.44928 1.54648,-0.60332 1.77607,-0.89394 2.0229,-0.88775 2.08151,-0.76277 1.43479,-0.58143 1.38789,-0.68141 1.10281,-0.63917 1.05901,-0.86255 0.95662,-1.21091"
         style="fill:none;stroke:#000000;stroke-width:1;stroke-linecap:butt;stroke-linejoin:miter;stroke-miterlimit:4;stroke-opacity:1;stroke-dasharray:none" />
      <path
         inkscape:connector-curvature="0"
         id="path3021-5"
         d="m 124.43868,146.8692 c 0,0 -1.31931,-0.0825 -2.40264,0.27308 -1.08333,0.35562 -5.01676,1.59056 -5.64004,1.82189 -0.62328,0.23133 -3.38823,1.16218 -3.96307,1.43178 -0.57485,0.26959 -3.18432,1.40194 -4.02391,1.88718 -0.8396,0.48523 -2.52345,1.64083 -3.06157,1.9237 -0.53813,0.28286 -4.05423,2.60268 -5.04534,3.21995 -0.991109,0.61728 -3.045203,1.76357 -3.681755,2.03162 -0.636553,0.26805 -2.644631,1.05737 -3.232747,1.36368 -0.588116,0.30631 -1.701089,0.85878 -2.290754,1.22679 -0.589666,0.36802 -2.048573,1.41813 -2.048573,1.41813"
         style="fill:#ffffff;fill-opacity:1;stroke:#000000;stroke-width:1;stroke-linecap:butt;stroke-linejoin:miter;stroke-miterlimit:4;stroke-opacity:1;stroke-dasharray:none" />
      <path
         inkscape:connector-curvature="0"
         id="path3027-2"
         d="m 84.806142,205.12196 0.692256,-1.83387 c 0,0 0.556491,-1.29587 0.727602,-1.85044 0.171113,-0.55457 0.534298,-1.80291 0.535257,-2.5364 9.59e-4,-0.73349 0.133301,-1.83044 -0.0115,-2.32309 -0.144809,-0.49265 -0.712805,-1.51987 -0.712805,-1.51987"
         style="fill:none;stroke:#000000;stroke-width:1;stroke-linecap:butt;stroke-linejoin:miter;stroke-miterlimit:4;stroke-opacity:1;stroke-dasharray:none" />
      <path
         inkscape:connector-curvature="0"
         id="path3029-6"
         d="m 91.00658,205.10306 0.506486,-2.78163 c 0,0 0.131109,-1.74317 0.158644,-2.14417 0.02754,-0.40099 0.12015,-1.30683 0.0063,-1.64152 -0.113846,-0.33469 -0.341538,-1.00407 -0.341538,-1.00407"
         style="fill:none;stroke:#000000;stroke-width:1;stroke-linecap:butt;stroke-linejoin:miter;stroke-miterlimit:4;stroke-opacity:1;stroke-dasharray:none" />
      <path
         inkscape:connector-curvature="0"
         id="path3031-5"
         d="m 94.304426,190.62035 c 0,0 0.691572,0.27934 0.944607,0.63499 0.253037,0.35565 0.841996,1.24368 1.140379,1.8799 0.298384,0.63623 0.730615,2.20144 0.809116,2.5527 0.0785,0.35127 0.404693,1.96621 0.424694,2.56052 0.02,0.5943 0.06124,2.42912 0.06124,2.42912 l -0.405107,1.52672"
         style="fill:none;stroke:#000000;stroke-width:1;stroke-linecap:butt;stroke-linejoin:miter;stroke-miterlimit:4;stroke-opacity:1;stroke-dasharray:none" />
      <path
         inkscape:connector-curvature="0"
         id="path3033-9"
         d="m 83.131746,195.29968 c 0,0 -0.249612,0.20331 -0.577725,0.0554 -0.328113,-0.14796 -0.535804,-0.22303 -0.574574,-0.76541 -0.03877,-0.54238 0.106997,-0.78323 0.275917,-1.25053 0.16892,-0.4673 0.527994,-0.16139 0.527994,-0.16139 l -0.637457,-0.34784"
         style="fill:none;stroke:#000000;stroke-width:1;stroke-linecap:butt;stroke-linejoin:miter;stroke-miterlimit:4;stroke-opacity:1;stroke-dasharray:none" />
      <path
         inkscape:connector-curvature="0"
         id="path3035-8"
         d="m 84.241848,194.90841 c -0.189882,0.6065 -0.07823,1.02846 0.122887,1.36534 0.201114,0.33688 0.545804,0.52018 0.807609,0.52676"
         style="fill:none;stroke:#000000;stroke-width:1;stroke-linecap:butt;stroke-linejoin:miter;stroke-miterlimit:4;stroke-opacity:1;stroke-dasharray:none" />
      <path
         inkscape:connector-curvature="0"
         id="path3037-4"
         d="m 85.221256,192.76739 -1.220524,0.61554 0.116996,-0.48607"
         style="fill:none;stroke:#000000;stroke-width:1;stroke-linecap:butt;stroke-linejoin:miter;stroke-miterlimit:4;stroke-opacity:1;stroke-dasharray:none" />
      <path
         inkscape:connector-curvature="0"
         id="path3039-6"
         d="m 88.100699,196.33266 c 0.704721,-0.24427 0.740066,-0.26085 0.740066,-0.26085"
         style="fill:none;stroke:#000000;stroke-width:1;stroke-linecap:butt;stroke-linejoin:miter;stroke-miterlimit:4;stroke-opacity:1;stroke-dasharray:none" />
      <path
         inkscape:connector-curvature="0"
         id="path3041-1"
         d="m 88.58677,196.44965 0.712532,0.14016"
         style="fill:none;stroke:#000000;stroke-width:1;stroke-linecap:butt;stroke-linejoin:miter;stroke-miterlimit:4;stroke-opacity:1;stroke-dasharray:none" />
      <path
         inkscape:connector-curvature="0"
         id="path3043-2"
         d="m 92.420961,196.07442 c 0,0 0.127957,-0.92242 0.311262,-1.26711 0.183304,-0.34469 0.165495,-1.02626 0.50676,-1.40191 0.341266,-0.37565 0.522378,-0.63307 0.522378,-0.63307"
         style="fill:none;stroke:#000000;stroke-width:1;stroke-linecap:butt;stroke-linejoin:miter;stroke-miterlimit:4;stroke-opacity:1;stroke-dasharray:none" />
      <path
         inkscape:connector-curvature="0"
         id="path3045-4"
         d="m 90.623399,194.63209 0.138917,-1.35876"
         style="fill:none;stroke:#000000;stroke-width:1;stroke-linecap:butt;stroke-linejoin:miter;stroke-miterlimit:4;stroke-opacity:1;stroke-dasharray:none" />
      <path
         inkscape:connector-curvature="0"
         id="path3047-0"
         d="m 90.191853,190.95367 c 0,0 -0.17577,-0.65061 -0.254268,-1.00188 -0.0785,-0.35126 -0.167002,-0.99968 -0.167002,-0.99968"
         style="fill:none;stroke:#000000;stroke-width:1;stroke-linecap:butt;stroke-linejoin:miter;stroke-miterlimit:4;stroke-opacity:1;stroke-dasharray:none" />
      <path
         inkscape:connector-curvature="0"
         id="path3049-7"
         d="m 95.083265,190.90188 0.412916,-1.14229 0.113572,-1.04503"
         style="fill:none;stroke:#000000;stroke-width:1;stroke-linecap:butt;stroke-linejoin:miter;stroke-miterlimit:4;stroke-opacity:1;stroke-dasharray:none" />
      <path
         inkscape:connector-curvature="0"
         id="path3051-0"
         d="m 93.477228,186.00636 c 0,0 0.143576,-0.15357 0.511417,-0.19673 0.367844,-0.0431 1.116953,0.72664 1.116953,0.72664 l 0.232076,0.49484"
         style="fill:none;stroke:#000000;stroke-width:1;stroke-linecap:butt;stroke-linejoin:miter;stroke-miterlimit:4;stroke-opacity:1;stroke-dasharray:none" />
      <path
         inkscape:connector-curvature="0"
         id="path3053-3"
         d="m 87.20514,186.79191 c 0,0 0.240845,0.14577 0.799801,0.14234 0.558956,-0.003 1.334371,-0.28085 1.334371,-0.28085"
         style="fill:none;stroke:#000000;stroke-width:1;stroke-linecap:butt;stroke-linejoin:miter;stroke-miterlimit:4;stroke-opacity:1;stroke-dasharray:none" />
      <path
         inkscape:connector-curvature="0"
         id="path3055-3"
         d="m 87.773957,191.95828 c -0.236459,-0.3203 -0.33592,-0.53238 -0.397844,-0.8483 -0.06192,-0.31592 0.0285,-1.13449 0.2803,-1.42506 0.251806,-0.29058 0.873643,-0.71157 1.13764,-0.79227"
         style="fill:none;stroke:#000000;stroke-width:1;stroke-linecap:butt;stroke-linejoin:miter;stroke-miterlimit:4;stroke-opacity:1;stroke-dasharray:none" />
      <path
         inkscape:connector-curvature="0"
         id="path3057-5"
         d="m 83.722762,189.84808 c -0.224267,-0.11042 -0.49265,0.14481 -0.361268,-0.21865 0.131383,-0.36346 0.663763,-0.69938 0.896798,-0.93803 0.233035,-0.23865 0.696914,-0.62869 0.696914,-0.62869"
         style="fill:none;stroke:#000000;stroke-width:1;stroke-linecap:butt;stroke-linejoin:miter;stroke-miterlimit:4;stroke-opacity:1;stroke-dasharray:none" />
      <path
         inkscape:connector-curvature="0"
         id="path2997-3"
         d="m 75.381546,165.27251 c 0,0 1.157053,-2.79895 2.799532,-3.7827 1.642482,-0.98374 0.862169,-0.89219 3.641938,-1.92147 2.779769,-1.02927 4.814101,0.57785 5.154706,0.784 0.340604,0.20614 1.332776,1.02143 2.026773,2.89127 0.693996,1.86984 -0.71386,4.32905 -1.171488,4.84858 -0.457627,0.51953 -2.657709,2.06969 -3.757411,2.58544 -1.0997,0.51575 -3.739682,1.388 -4.515344,1.29442 -0.775661,-0.0936 -2.429377,-0.6291 -2.982523,-1.22341 -0.553143,-0.59432 -1.356412,-2.04703 -1.387798,-2.76408 -0.03139,-0.71705 0.191615,-2.71205 0.191615,-2.71205 z"
         style="fill:#ffffff;fill-opacity:1;stroke:#000000;stroke-width:1;stroke-linecap:butt;stroke-linejoin:miter;stroke-miterlimit:4;stroke-opacity:1;stroke-dasharray:none" />
      <path
         inkscape:connector-curvature="0"
         id="path3001-6"
         d="m 81.91916,165.81955 0.146424,-0.17539 0.295268,0.0445 0.06059,0.29173 -0.187789,0.34724 -0.301903,-0.0261 z"
         style="fill:#ffffff;fill-opacity:1;stroke:#000000;stroke-width:1;stroke-linecap:butt;stroke-linejoin:miter;stroke-miterlimit:4;stroke-opacity:1;stroke-dasharray:none" />
      <path
         inkscape:connector-curvature="0"
         id="path3011-9"
         d="m 126.16117,155.48294 0.75426,-1.51237 0.30902,-1.48652 0.2263,-1.14281 -0.38527,-0.88648 -0.64779,-1.25121 -1.01251,-0.98869 -0.97493,-0.51846 -1.05524,0.22048 -0.79581,0.70862 -0.63723,0.78671 -0.24577,1.42635 0.30012,0.83495 0.52747,1.1247 0.79687,0.72393 0.9108,0.12167 0.81548,-0.0166 0.89423,-0.69381 0.37403,-0.63277 0.11857,-0.78738 -0.0267,-0.90218 -0.23221,-1.08023 -0.55866,-0.86614 -0.71948,-0.36386 -0.63035,0.0212 -0.50451,0.41955 -0.47555,0.74137 -0.14202,0.7374 0.22978,0.68499 0.32269,0.42798 0.56399,0.16236 0.75135,-0.41336 0.31474,-0.23908 -0.20014,-0.88183 -0.42886,-0.13427 -0.33043,-0.11944 -0.26873,-0.1179 -0.49279,0.44455 -0.1889,0.63743 0.20236,0.30146 0.50849,-0.086 -0.16236,0.564 0.37025,0.009 0.36696,-0.8429 -0.5483,0.19617 0.44193,-0.87805 0.0891,0.38507 -0.0593,0.39369 0.10065,-0.56555 -0.11877,-0.18822 0.2913,-0.28907 0.46712,0.0858 0.31561,0.21787"
         style="fill:none;stroke:#000000;stroke-width:1;stroke-linecap:butt;stroke-linejoin:miter;stroke-miterlimit:4;stroke-opacity:1;stroke-dasharray:none" />
      <path
         inkscape:connector-curvature="0"
         id="path3013-8"
         d="m 124.40051,151.33872 0.0891,0.38507 c 0,0 0.16565,0.2882 0.36405,0.25613 0.19839,-0.0321 0.29992,-0.14066 0.35455,-0.34922 0.0546,-0.20857 0.0803,-0.73895 0.0803,-0.73895"
         style="fill:none;stroke:#000000;stroke-width:1;stroke-linecap:butt;stroke-linejoin:miter;stroke-miterlimit:4;stroke-opacity:1;stroke-dasharray:none" />
      <path
         inkscape:connector-curvature="0"
         id="path3015-4"
         d="m 124.88681,153.61088 c 0,0 0.60226,0.11392 0.90218,-0.0267 0.29991,-0.14066 0.87631,-0.47197 1.14106,-0.6876 0.26476,-0.21564 0.34439,-0.43593 0.34439,-0.43593"
         style="fill:none;stroke:#000000;stroke-width:1;stroke-linecap:butt;stroke-linejoin:miter;stroke-miterlimit:4;stroke-opacity:1;stroke-dasharray:none" />
      <path
         inkscape:connector-curvature="0"
         id="path3017-6"
         d="m 123.16363,153.38235 -0.9632,-0.49347 c 0,0 -0.67501,-0.65912 -0.93754,-1.02385 -0.26252,-0.36473 -0.58918,-1.12625 -0.49008,-1.63008 0.0991,-0.50384 0.66755,-1.50221 0.93386,-1.77956 0.2663,-0.27734 1.32532,-1.1399 1.71194,-1.29073 0.38662,-0.15083 0.94819,-0.38371 1.4653,-0.32133 0.5171,0.0624 0.85461,0.39195 1.14368,0.68325 0.28907,0.29129 0.8579,1.24414 1.03528,1.55733 0.17737,0.31319 0.43612,1.31999 0.40338,1.64025 -0.0328,0.32026 0.005,0.79048 0.005,0.79048"
         style="fill:none;stroke:#000000;stroke-width:1;stroke-linecap:butt;stroke-linejoin:miter;stroke-miterlimit:4;stroke-opacity:1;stroke-dasharray:none" />
      <path
         inkscape:connector-curvature="0"
         id="path3019-7"
         d="m 122.83378,148.32316 c -0.52466,1.22176 -0.52311,1.16006 -0.57068,1.57874 -0.0476,0.41868 0.11741,1.22554 0.29324,1.60044 0.17582,0.3749 0.77895,0.94577 1.21953,1.10503 0.44058,0.15926 1.32483,0.35436 1.72473,0.16681 0.39989,-0.18754 1.03644,-0.45559 1.27378,-1.05475 0.23734,-0.59916 0.39727,-1.55839 0.34642,-1.9919 -0.0509,-0.4335 -0.27599,-1.30362 -0.46974,-1.45668 -0.19374,-0.15306 -0.98665,-0.54345 -1.40533,-0.59102 -0.41869,-0.0476 -0.97406,-0.0615 -1.43566,0.12448 -0.4616,0.186 -0.97629,0.51885 -0.97629,0.51885 z"
         style="fill:none;stroke:#000000;stroke-width:1;stroke-linecap:butt;stroke-linejoin:miter;stroke-miterlimit:4;stroke-opacity:1;stroke-dasharray:none" />
    </g>
  </g>
</svg>
