<?xml version="1.0" encoding="UTF-8" standalone="no"?>
<!-- Created with Inkscape (http://www.inkscape.org/) -->

<svg
   xmlns:dc="http://purl.org/dc/elements/1.1/"
   xmlns:cc="http://creativecommons.org/ns#"
   xmlns:rdf="http://www.w3.org/1999/02/22-rdf-syntax-ns#"
   xmlns:svg="http://www.w3.org/2000/svg"
   xmlns="http://www.w3.org/2000/svg"
   xmlns:sodipodi="http://sodipodi.sourceforge.net/DTD/sodipodi-0.dtd"
   xmlns:inkscape="http://www.inkscape.org/namespaces/inkscape"
   width="477.2883"
   height="222.2527"
   id="svg3564"
   version="1.1"
   inkscape:version="0.48.0 r9654"
   sodipodi:docname="new_manatee.svg">
  <defs
     id="defs3566" />
  <sodipodi:namedview
     id="base"
     pagecolor="#ffffff"
     bordercolor="#666666"
     borderopacity="1.0"
     inkscape:pageopacity="0.0"
     inkscape:pageshadow="2"
     inkscape:zoom="0.98994949"
     inkscape:cx="99.509322"
     inkscape:cy="83.980266"
     inkscape:document-units="px"
     inkscape:current-layer="layer1"
     showgrid="false"
     inkscape:window-width="1920"
     inkscape:window-height="1018"
     inkscape:window-x="-8"
     inkscape:window-y="-8"
     inkscape:window-maximized="1"
     fit-margin-top="0"
     fit-margin-left="0"
     fit-margin-right="0"
     fit-margin-bottom="0" />
  <metadata
     id="metadata3569">
    <rdf:RDF>
      <cc:Work
         rdf:about="">
        <dc:format>image/svg+xml</dc:format>
        <dc:type
           rdf:resource="http://purl.org/dc/dcmitype/StillImage" />
        <dc:title></dc:title>
      </cc:Work>
    </rdf:RDF>
  </metadata>
  <g
     inkscape:label="Layer 1"
     inkscape:groupmode="layer"
     id="layer1"
     transform="translate(-1.6491688,-1.6015451)">
    <g
       id="g4457"
       transform="translate(-48.992398,-468.20571)">
      <path
         inkscape:connector-curvature="0"
         id="path4437"
         d="m 322.4912,495.5156 -19.69798,-13.13199 -47.98224,-10.6066 -48.9924,3.53554 -36.36549,17.67766 -57.07362,51.51778 -42.426406,7.07107 -14.647213,8.08122 2.020307,11.11168 7.576144,10.10153 31.314729,5.05076 15.657359,6.56599 22.72843,29.29442 23.23351,28.28428 20.20305,11.61675 3.53554,18.18275 7.57614,7.57614 18.18275,-0.50508 12.12183,-8.08122 4.54568,-5.55584 27.27412,1.51523 26.26397,-2.52538 27.27412,-12.12183 13.13198,-11.61675 18.18275,3.53553 22.72843,-8.5863 10.6066,-15.65736 1.51523,-15.15229 31.8198,3.53554 33.33504,-4.04061 38.89087,-15.65737 18.68782,-12.62691 7.57615,-15.65736 -6.06092,-9.59645 -10.6066,-0.50508 10.6066,-13.63706 -0.50508,-21.2132 -9.59644,-10.6066 -127.7843,0.50508 -3.03046,-13.63706 -16.66752,-5.55584 z"
         style="fill:#ffffff;fill-opacity:1;stroke:none" />
      <path
         d="m 345.13108,530.47562 c -1.54738,0.52681 -3.12717,0.9349 -4.73633,1.21733 -1.2728,0.20663 -2.56258,0.24363 -3.84916,0.25787 -1.16045,0.005 -2.32091,-0.002 -3.48136,-0.005 -1.17689,0.0636 -2.32784,-0.0603 -3.47958,-0.29192 -1.07767,-0.19836 -2.13101,-0.52078 -3.14836,-0.92467 -0.94123,-0.24164 -1.80632,-0.64555 -2.64275,-1.13491 -0.94797,-0.44642 -1.78383,-1.15246 -2.53908,-1.86934 -0.90658,-0.80192 -1.593,-1.80953 -2.42271,-2.67897 -0.97,-0.91402 -1.75321,-1.9911 -2.44686,-3.12254 -0.7119,-1.14329 -1.30131,-2.34436 -1.72247,-3.62296 -0.25361,-1.17992 -0.54034,-2.3543 -0.72972,-3.54748 -0.17317,-1.26939 -0.20845,-2.55123 -0.22822,-3.83044 -0.077,-1.30564 0.0665,-2.5937 0.25636,-3.88269 0.26282,-1.39302 0.67396,-2.72644 1.32588,-3.98414 0.47162,-0.91352 1.12172,-1.69998 1.7343,-2.51637 0.69856,-0.92118 1.47363,-1.77635 2.17894,-2.69187 0.86337,-1.06418 1.77935,-2.05008 2.86378,-2.89093 0.91204,-0.84239 2.05838,-1.31068 3.20124,-1.74429 1.5441,-0.48613 3.15088,-0.74249 4.75541,-0.93102 1.82365,-0.0957 3.63291,-0.33009 5.44735,-0.52641 1.44973,-0.17826 2.88984,-0.23697 4.33853,-0.0417 1.0985,0.12409 2.17315,0.35611 3.25167,0.591 1.09872,0.33383 2.17435,0.737 3.22201,1.20631 1.00998,0.49085 2.05923,0.88607 3.06246,1.39011 1.20478,0.57136 2.26721,1.40123 3.23169,2.31244 0.86399,0.81335 1.59567,1.74771 2.42011,2.59749 0.9128,1.0407 1.66257,2.22744 2.28746,3.46022 0.48805,1.25593 0.93043,2.53311 1.32459,3.82198 0.2919,1.05092 0.65661,2.06639 0.86139,3.14247 0.31816,1.01619 0.48569,2.06677 0.59938,3.12266 0.10007,1.12663 0.1033,2.25859 0.10741,3.38871 4.1e-4,1.25973 0.0323,2.51669 -0.0827,3.7716 -0.16329,1.50381 -0.74762,2.87722 -1.53831,4.14784 -0.5467,0.8348 -1.2394,1.56301 -1.95255,2.25563 -0.5244,0.64038 -1.20566,1.10176 -1.83847,1.62153 -0.90848,0.68937 -1.94088,1.16217 -2.98544,1.60289 -1.03946,0.41578 -2.05896,0.8249 -3.15833,1.0648 -1.14854,0.20707 -2.31822,0.22094 -3.48152,0.23216 -1.02131,0.004 -2.04263,-8e-4 -3.06393,-0.003 -0.5043,-10e-4 -1.00861,-0.002 -1.51291,-0.002 -4.28571,-0.004 -4.27959,-6.06525 0.006,-6.06092 l 0,0 c 0.50678,5.2e-4 1.01356,0.001 1.52033,0.002 0.99792,0.002 1.99585,0.007 2.99377,0.003 0.7731,-0.007 1.54973,-0.007 2.3176,-0.10826 0.72546,-0.12261 1.35196,-0.499 2.04804,-0.72286 0.57662,-0.235 1.14634,-0.46523 1.65096,-0.83511 0.4241,-0.31452 0.8864,-0.64569 1.3717,-1.22853 0.43788,-0.28753 0.7366,-0.80555 1.04955,-1.19543 0.25098,-0.43077 0.5097,-0.91324 0.55091,-1.45554 0.20422,-0.99266 -0.0603,-2.06335 0.0443,-3.06855 -0.003,-0.92794 -0.003,-1.85731 -0.0749,-2.78305 -0.0892,-0.90849 -0.28928,-1.79016 -0.53483,-2.66937 -0.136,-0.85159 -0.51621,-1.62852 -0.69926,-2.46941 -0.29084,-0.97961 -0.66104,-1.93343 -0.96555,-2.90866 -0.30614,-0.68988 -0.76906,-1.313 -1.20819,-1.92047 -0.76586,-0.79799 -1.45999,-1.6577 -2.25288,-2.43064 -0.52994,-0.52522 -1.12879,-0.98933 -1.81086,-1.29773 -0.90167,-0.49069 -1.8979,-0.79401 -2.81008,-1.26742 -0.64792,-0.31056 -1.33553,-0.51782 -1.99439,-0.79628 -0.93293,-0.20486 -1.85513,-0.4155 -2.80855,-0.51118 -0.94239,-0.14732 -1.88624,-0.0241 -2.83517,0.0668 -1.79989,0.19423 -3.59516,0.43035 -5.40438,0.52162 -1.12054,0.12594 -2.23538,0.30506 -3.32708,0.58712 -0.65276,0.23764 -1.19472,0.41384 -1.69845,0.92434 -0.69076,0.44505 -1.12056,1.15739 -1.68892,1.73425 -0.70419,0.91288 -1.46882,1.77229 -2.17328,2.68452 -0.45486,0.58467 -0.93011,1.14032 -1.26547,1.80875 -0.24671,0.51459 -0.45491,1.24019 -0.60432,1.88223 -0.1429,0.96922 -0.27269,1.92262 -0.19229,2.90711 0.0149,1.0041 0.0359,2.01039 0.15957,3.00818 0.12591,0.88932 0.3845,1.75198 0.51876,2.63983 0.23237,0.83952 0.711,1.58007 1.14098,2.32972 0.45571,0.80268 1.05024,1.50892 1.71791,2.14469 0.72236,0.80417 1.36998,1.67096 2.16263,2.41188 0.4099,0.41195 0.85361,0.77013 1.38965,0.99803 0.45092,0.26381 1.07397,0.55042 1.82212,0.73448 0.6789,0.27066 1.37943,0.49393 2.10394,0.61463 0.76813,0.15464 1.5037,0.23942 2.30025,0.17285 1.13343,0.003 2.26688,0.009 3.40031,0.005 0.96331,-0.01 1.92976,-0.026 2.88433,-0.17012 1.51765,-0.25481 2.98197,-0.71034 4.45113,-1.1611 4.18366,-0.9297 5.49846,4.98689 1.3148,5.91659 z"
         id="path2980"
         style="fill:#000000;fill-opacity:1;stroke:none"
         inkscape:connector-curvature="0" />
      <path
         d="m 359.82413,510.72898 c 1.94779,0 3.89558,0 5.84337,0 1.44486,0 2.88972,0 4.33458,0 1.26309,-0.081 2.50211,0.1711 3.74785,0.32859 1.2394,0.12986 2.48655,0.15123 3.73154,0.17014 1.20192,0.0133 2.40394,0.0102 3.60591,0.009 1.07741,-0.001 2.15481,-0.002 3.23222,-0.002 1.01211,-3e-4 2.02423,-2.9e-4 3.03634,-3e-4 1.00922,0 2.01845,10e-6 3.02767,2e-5 1.08631,0 2.17261,0 3.25891,1e-5 1.55774,0.0151 3.10114,0.26491 4.65485,0.37358 1.54814,0.12239 3.08897,0.13659 4.63402,-0.002 1.91361,-0.19562 3.83534,-0.28005 5.75728,-0.33594 1.30266,-0.0342 2.6058,-0.0386 3.90883,-0.0395 1.03803,4.8e-4 2.07607,0.002 3.11411,0.003 1.45489,7.3e-4 2.90977,7.1e-4 4.36466,7.6e-4 1.67346,-0.0342 3.35234,0.07 5.02244,-0.054 2.24461,-0.23066 4.49808,-0.32946 6.75258,-0.3931 2.38009,-0.0533 4.7609,-0.0584 7.14148,-0.0614 1.65144,0.0804 3.28218,-0.049 4.92212,-0.21167 1.34992,-0.0461 2.66547,-0.32966 3.99425,-0.54055 1.61932,-0.22088 3.25532,-0.27189 4.88533,-0.18457 1.49835,0.15468 2.99579,0.30228 4.50037,0.37907 1.21981,0.0551 2.44114,0.0564 3.66194,0.0591 1.34665,9e-4 2.6933,-10e-4 4.03996,-0.002 1.51469,-8.9e-4 3.02938,-10e-4 4.54407,-10e-4 1.97173,-8e-5 3.94346,-5e-5 5.91519,-4e-5 1.53544,0.0165 3.07163,-0.0558 4.60223,0.0773 1.30807,0.16546 2.55958,0.6158 3.79471,1.05868 1.18944,0.48017 2.35548,1.01416 3.54536,1.49504 1.11067,0.54144 2.219,1.05518 3.25449,1.73358 0.98823,0.57093 1.89664,1.24875 2.81734,1.91811 1.10236,0.78909 1.93762,1.78912 2.61561,2.95384 0.60794,1.06278 1.05607,2.21375 1.43864,3.37446 0.30558,1.23107 0.59188,2.46719 0.79204,3.7208 0.30606,1.12912 0.51048,2.27757 0.63924,3.43923 0.10455,1.11754 0.11051,2.24082 0.11528,3.36224 0.006,1.13808 0.0232,2.2716 -0.0859,3.40471 -0.16031,1.24137 -0.50356,2.44912 -0.89181,3.63587 -0.38988,1.17695 -0.90886,2.30787 -1.45883,3.41753 -0.37354,0.93815 -0.85385,1.82502 -1.30208,2.72835 -0.43931,0.93469 -1.03932,1.77868 -1.5401,2.67816 -0.53723,0.95795 -1.10906,1.89388 -1.747,2.78877 -0.83144,1.05728 -1.73798,2.05515 -2.64345,3.04879 -0.91259,0.93898 -1.86449,1.83873 -2.80149,2.75316 -1.16001,1.08742 -2.43579,2.03133 -3.69997,2.99036 -0.86365,0.69872 -1.70845,1.41239 -2.5118,2.18225 -0.86586,0.73726 -1.66617,1.54487 -2.51161,2.305 -0.80468,0.88449 -1.79395,1.55571 -2.75013,2.25995 -1.15248,0.91988 -2.3972,1.71065 -3.69011,2.41571 -1.20538,0.6429 -2.38479,1.31841 -3.54725,2.03468 -1.25976,0.80629 -2.60106,1.45313 -3.94761,2.09644 -1.10337,0.45073 -2.19962,0.89368 -3.24985,1.46026 -0.9556,0.57445 -1.98263,1.00505 -2.97272,1.51538 -1.354,0.62999 -2.77165,1.11574 -4.16536,1.65067 -1.33864,0.57694 -2.67545,1.15821 -4.01163,1.74127 -1.30971,0.66408 -2.64093,1.28445 -3.99172,1.86035 -1.64276,0.75724 -3.36301,1.30936 -5.07927,1.87032 -1.16862,0.34882 -2.32964,0.72178 -3.48522,1.1113 -1.01149,0.31169 -2.0135,0.65267 -3.01412,0.99811 -1.21794,0.35997 -2.42069,0.76332 -3.62554,1.16432 -1.44315,0.43148 -2.88422,0.86909 -4.31653,1.33508 -1.15014,0.35531 -2.29163,0.73635 -3.44648,1.07859 -1.22745,0.34914 -2.43866,0.72183 -3.69777,0.94466 -1.06696,0.30979 -2.1598,0.49365 -3.26261,0.61185 -1.13126,0.26558 -2.2869,0.4064 -3.44282,0.5092 -1.00893,-0.008 -1.98357,0.21915 -2.97493,0.3714 -1.47806,0.19525 -2.97126,0.2086 -4.45954,0.22632 -1.57142,0.0123 -3.1429,0.009 -4.71435,0.008 -1.591,-10e-4 -3.182,-0.002 -4.773,-0.002 -1.36799,-2.5e-4 -2.73599,-2.8e-4 -4.10398,-2.8e-4 -1.04244,0 -2.08487,10e-6 -3.12731,2e-5 -1.10818,-0.12055 -2.21416,-0.31772 -3.30374,-0.5553 -0.97534,-0.25102 -1.96634,-0.38529 -2.9356,-0.66333 -0.93098,-0.34448 -1.89117,-0.54942 -2.85043,-0.79251 -0.61993,-0.18242 -1.25256,-0.30491 -1.89131,-0.39605 -4.23895,-0.63138 -3.34605,-6.62616 0.8929,-5.99478 l 0,0 c 0.84957,0.12987 1.69466,0.28492 2.52144,0.52439 1.00716,0.27256 2.02696,0.48976 3.01189,0.83682 0.8677,0.25423 1.77386,0.33131 2.64603,0.58724 0.615,0.19207 1.31334,0.15287 1.90879,0.3926 1.04245,0 2.0849,-10e-6 3.12736,-2e-5 1.36844,10e-6 2.73688,3e-5 4.10533,2.8e-4 1.5922,3.6e-4 3.1844,10e-4 4.77661,0.003 1.54598,10e-4 3.09199,0.004 4.63794,-0.008 1.20692,-0.0141 2.41763,-0.0186 3.61822,-0.15761 1.11717,-0.1684 2.22542,-0.41349 3.3609,-0.41759 1.12564,-0.0957 2.23619,-0.28079 3.34424,-0.49978 0.97272,-0.0956 1.91765,-0.31436 2.86381,-0.55704 1.02777,-0.16616 2.00012,-0.52192 3.00516,-0.78361 1.10261,-0.3243 2.19139,-0.68878 3.28839,-1.02953 1.42002,-0.46185 2.84841,-0.89722 4.27958,-1.32294 1.18345,-0.39294 2.36421,-0.793 3.56133,-1.14257 1.01442,-0.34942 2.03134,-0.69206 3.05511,-1.01208 1.17366,-0.39518 2.35314,-0.77339 3.53924,-1.12922 1.55214,-0.50608 3.10937,-0.99679 4.59227,-1.68786 1.33577,-0.56374 2.64005,-1.19579 3.93945,-1.83787 1.42135,-0.61774 2.84088,-1.23878 4.26691,-1.84562 1.20547,-0.45963 2.42899,-0.88298 3.60749,-1.40448 0.9609,-0.47634 1.93865,-0.879 2.85064,-1.45224 1.13167,-0.59593 2.2922,-1.12017 3.48538,-1.57897 1.15339,-0.54942 2.30685,-1.091 3.38183,-1.78864 1.26247,-0.77475 2.54209,-1.50803 3.84786,-2.20791 1.05245,-0.55615 2.04214,-1.2225 2.97416,-1.96276 0.80752,-0.59298 1.64189,-1.14595 2.31116,-1.90448 0.80126,-0.70082 1.53173,-1.47748 2.35152,-2.15729 0.97248,-0.92887 2.00107,-1.78172 3.03981,-2.63237 1.0646,-0.80661 2.14228,-1.59366 3.12846,-2.49819 0.85911,-0.83837 1.72925,-1.66573 2.57388,-2.51874 0.75318,-0.80623 1.47558,-1.64582 2.18704,-2.48906 0.52631,-0.71652 0.96623,-1.4848 1.40421,-2.25656 0.4625,-0.79643 0.98062,-1.55644 1.38329,-2.386 0.45503,-0.89971 0.9226,-1.78748 1.29995,-2.72411 0.43542,-0.854 0.83041,-1.73472 1.13591,-2.64341 0.2847,-0.78378 0.48552,-1.60189 0.61667,-2.42405 0.2251,-0.83695 -0.078,-1.79529 0.0419,-2.65054 -0.004,-0.91329 -0.005,-1.82807 -0.0805,-2.73888 -0.10958,-1.06702 -0.3577,-2.10423 -0.60069,-3.14776 -0.1448,-0.94533 -0.37613,-1.87041 -0.5742,-2.80478 -0.24171,-0.78984 -0.55875,-1.566 -0.96568,-2.2845 -0.19933,-0.45428 -0.41518,-0.62754 -0.91029,-1.01761 -0.84366,-0.62523 -1.68606,-1.2364 -2.59802,-1.76413 -0.67541,-0.47497 -1.44889,-0.74447 -2.16273,-1.15422 -1.11095,-0.45282 -2.20738,-0.93844 -3.3112,-1.40555 -0.78289,-0.28086 -1.56992,-0.58858 -2.38786,-0.73665 -1.29242,-0.22504 -2.66017,0.0851 -3.96289,-0.0435 -1.97159,-1e-5 -3.94319,-3e-5 -5.91479,4e-5 -1.51342,10e-5 -3.02684,2.2e-4 -4.54027,10e-4 -1.3525,9.4e-4 -2.70501,0.003 -4.05752,0.002 -1.32035,-0.003 -2.64126,-0.006 -3.96048,-0.0671 -1.52894,-0.0795 -3.05232,-0.21643 -4.57415,-0.38333 -1.18246,-0.0988 -2.37672,-10e-4 -3.55453,0.12271 -1.44346,0.22639 -2.87607,0.52586 -4.34095,0.58508 -1.83536,0.18209 -3.66624,0.31724 -5.5131,0.24128 -2.32632,0.003 -4.65287,0.008 -6.97874,0.059 -2.17956,0.0609 -4.35754,0.15956 -6.52751,0.3826 -1.80425,0.10751 -3.61092,0.0578 -5.41788,0.0669 -1.45613,-5e-5 -2.91225,-3e-5 -4.36838,-7.7e-4 -1.03541,-6.7e-4 -2.07081,-0.002 -3.10622,-0.003 -1.24589,8e-4 -2.4919,0.005 -3.73745,0.037 -1.8034,0.0519 -3.60663,0.13003 -5.40208,0.31521 -1.86426,0.16143 -3.72576,0.15763 -5.59249,0.01 -1.41156,-0.10094 -2.81531,-0.31511 -4.22692,-0.35845 -1.08631,0 -2.17263,0 -3.25894,-1e-5 -1.0092,0 -2.0184,-10e-6 -3.0276,-10e-6 -1.01138,0 -2.02275,0 -3.03413,3e-4 -1.07629,4e-4 -2.15258,10e-4 -3.22887,0.002 -1.23484,10e-4 -2.46974,0.004 -3.70453,-0.01 -1.47019,-0.0228 -2.94289,-0.0534 -4.40542,-0.21814 -0.99526,-0.12787 -1.97219,-0.35443 -2.98095,-0.27988 -1.44486,0 -2.88972,0 -4.33458,0 -1.94779,0 -3.89558,0 -5.84337,0 -4.28571,0 -4.28571,-6.06091 0,-6.06091 z"
         id="path2982"
         style="fill:#000000;fill-opacity:1;stroke:none"
         inkscape:connector-curvature="0" />
      <path
         d="m 476.22459,560.38501 c 1.35038,-0.96158 2.64297,-1.98552 4.10549,-2.77362 1.23233,-0.56895 2.5796,-0.8226 3.90161,-1.0987 1.17189,-0.23313 2.36656,-0.28849 3.55773,-0.319 1.25929,-0.0193 2.51884,-0.0132 3.77824,-0.0115 1.73943,-0.0776 2.92201,0.0237 4.53926,0.78383 1.14909,0.61291 1.93293,1.68393 2.93951,2.47623 1.07552,0.90018 1.9769,1.96109 2.76206,3.11748 0.84806,1.33629 1.13842,2.85908 1.26529,4.40885 0.062,1.09257 0.0485,2.1875 0.0434,3.28128 0.0429,1.48219 -0.35466,2.90405 -0.90074,4.26508 -0.37344,1.04955 -0.87466,2.02665 -1.46931,2.96635 -0.34609,0.84669 -0.99709,1.51596 -1.40445,2.32666 -0.57595,0.98209 -1.30357,1.86397 -1.92914,2.81277 -0.69963,1.00515 -1.48478,1.95381 -2.28922,2.87736 -0.97322,1.07671 -1.96862,2.13522 -3.04677,3.10735 -1.07062,0.85742 -2.07001,1.7983 -3.12994,2.66748 -0.9177,0.94709 -1.99749,1.69284 -3.062,2.46056 -0.87251,0.64985 -1.84057,1.1848 -2.70103,1.8487 -0.91428,0.66438 -1.84768,1.27639 -2.84091,1.81713 -1.03271,0.55433 -2.12744,0.98279 -3.17231,1.50893 -1.26253,0.62733 -2.49282,1.31662 -3.75841,1.93787 -1.17653,0.73105 -2.54337,1.1065 -3.71742,1.83078 -1.34642,0.75588 -2.75948,1.36937 -4.16059,2.01345 -1.34966,0.61386 -2.71629,1.18324 -4.0986,1.71923 -1.00126,0.46269 -2.0211,0.87797 -3.03542,1.30989 -1.11695,0.50315 -2.33666,0.68988 -3.48994,1.08154 -1.20843,0.40541 -2.45878,0.67909 -3.66862,1.07876 -1.06213,0.36721 -2.16631,0.6197 -3.22169,1.00314 -1.17058,0.30078 -2.30495,0.70368 -3.44687,1.09364 -1.68041,0.55392 -3.37144,1.07685 -5.05856,1.61143 -1.5915,0.40683 -3.10525,1.03833 -4.65757,1.55944 -1.52714,0.52126 -3.07771,0.95215 -4.64635,1.32699 -1.74689,0.35208 -3.45309,0.86804 -5.18417,1.28395 -1.43959,0.24725 -2.85919,0.59026 -4.30315,0.81255 -1.2867,0.18485 -2.55342,0.45528 -3.84874,0.59419 -1.70173,0.0663 -3.39163,0.19927 -5.08564,0.37099 -1.58796,0.16592 -3.18348,0.23576 -4.77892,0.27419 -1.1098,0.0215 -2.21985,0.0195 -3.32979,0.0186 -1.3344,-0.002 -2.66881,-0.002 -4.00321,-0.003 -1.39259,-4.1e-4 -2.78518,-4.4e-4 -4.17778,-4.6e-4 -1.58153,-10e-6 -3.16307,1e-5 -4.7446,2e-5 -1.34603,-0.008 -2.69049,0.0475 -4.03083,-0.0844 -0.96587,-0.21047 -1.94803,-0.308 -2.91529,-0.50353 -0.81186,-0.26508 -1.66108,-0.33433 -2.49533,-0.49129 -1.30066,-0.33406 -2.60404,-0.6586 -3.90778,-0.98337 -1.25868,-0.32601 -2.52507,-0.63077 -3.7797,-0.9725 -1.14275,-0.15521 -2.17178,-0.91665 -3.30042,-1.07361 0.69518,0.24603 1.37133,-0.0389 1.93442,-0.4628 0.17136,-0.129 0.28787,-0.31856 0.4195,-0.4879 0.0544,-0.0701 0.0508,-0.2075 0.13711,-0.22819 0.0639,-0.0153 -0.005,0.13136 -0.007,0.19704 -0.0551,0.96607 -0.0385,1.93452 -0.0312,2.90164 0.0762,1.17318 -0.0425,2.32129 -0.27029,3.47052 -0.0754,0.86902 -0.40107,1.68378 -0.57576,2.53148 -0.13547,1.06562 -0.56286,2.05532 -0.87792,3.07276 -0.28344,1.14596 -0.78011,2.23061 -1.2433,3.31384 -0.42613,0.96376 -0.82681,1.93563 -1.20366,2.91994 -0.31518,1.11836 -0.90622,2.11353 -1.48624,3.10784 -0.59629,0.97468 -1.13365,1.97888 -1.75914,2.93598 -0.69382,1.08407 -1.4686,2.11112 -2.20209,3.16737 -0.87042,1.02616 -1.62469,2.13972 -2.50129,3.15944 -0.60956,0.87029 -1.37936,1.60379 -2.09068,2.38605 -0.93204,1.10231 -2.08471,1.96841 -3.30041,2.7303 -1.17276,0.61444 -2.3685,1.17793 -3.55804,1.75888 -1.73401,0.74097 -3.5896,1.14011 -5.4018,1.64906 -1.82244,0.43493 -3.66209,0.80857 -5.51744,1.07355 -1.6645,0.20394 -3.31597,0.47718 -4.98806,0.62428 -1.43849,0.10879 -2.87604,0.0856 -4.30671,0.27043 -1.70365,0.30557 -3.42339,0.15198 -5.13579,0.0419 -1.65419,-0.20208 -3.31095,-0.39288 -4.92668,-0.80904 -1.31193,-0.40816 -2.44732,-1.16914 -3.52979,-1.99165 -0.82721,-0.58753 -1.57065,-1.28382 -2.33076,-1.95462 -0.84396,-0.77883 -1.63169,-1.62126 -2.3958,-2.4782 -0.75454,-0.59209 -1.27724,-1.39669 -1.87947,-2.12608 -0.59148,-0.84706 -1.13863,-1.7309 -1.64536,-2.63249 -0.59302,-0.77003 -1.02486,-1.63947 -1.44729,-2.51015 -0.57272,-0.91585 -0.91507,-1.94119 -1.33312,-2.92983 -0.30597,-0.95178 -0.67984,-1.87323 -0.93575,-2.84152 -0.38836,-1.02889 -0.57927,-2.11082 -0.70832,-3.19815 -0.10821,-1.115 -0.11231,-2.23628 -0.11677,-3.35542 -0.19734,-0.91072 -0.30924,-1.83896 -0.39688,-2.76613 -0.0182,-1.33034 0.21314,-2.64429 0.31859,-3.96737 -4e-4,-1.28531 0.43504,-2.47391 0.8538,-3.6655 0.17518,-0.7881 0.26382,-1.58495 0.46431,-2.37077 0.14639,-0.84325 0.36747,-1.66454 0.58925,-2.49077 0.38215,-0.87372 0.53414,-1.8066 0.7771,-2.71993 0.25881,-0.97365 0.64751,-1.90418 1.08121,-2.81074 1.96549,-3.80843 7.35143,-1.02881 5.38594,2.77963 l 0,0 c -0.23843,0.55863 -0.50826,1.09161 -0.64398,1.71199 -0.34681,0.82681 -0.28567,1.83411 -0.75291,2.63375 -0.22121,0.80296 -0.42146,1.58633 -0.56849,2.41262 -0.2501,0.94815 -0.26012,1.95337 -0.62083,2.88209 -0.25335,0.70865 -0.55965,1.34541 -0.52413,2.12518 -0.0795,0.97556 -0.17044,1.95575 -0.32474,2.92124 0.0994,1.10709 0.3346,2.19293 0.42263,3.30109 0.003,0.89778 0.003,1.79713 0.0778,2.69246 0.0876,0.82665 0.27678,1.62328 0.56407,2.40557 0.14388,0.67416 0.48005,1.29178 0.64122,1.96198 0.37805,0.89578 0.68113,1.81952 1.20494,2.64686 0.37677,0.77921 0.78828,1.52368 1.30125,2.22774 0.32136,0.61243 0.72096,1.18542 1.07373,1.77596 0.53273,0.67813 1.02933,1.36147 1.70408,1.9162 0.56775,0.68159 1.21367,1.30563 1.84552,1.92537 0.67519,0.59652 1.32386,1.21905 2.06467,1.73288 0.38373,0.34076 0.87656,0.63969 1.31171,0.89142 1.24036,0.32817 2.52012,0.43772 3.78812,0.6259 1.32934,0.0855 2.65691,0.24823 3.97914,-0.006 1.51362,-0.19146 3.02909,-0.21231 4.551,-0.29661 1.56362,-0.13311 3.10592,-0.40177 4.6628,-0.58721 1.59282,-0.22254 3.16911,-0.55201 4.73615,-0.90996 1.46174,-0.40523 2.94494,-0.75593 4.37311,-1.25808 1.0169,-0.49617 2.03619,-0.98358 3.05126,-1.48083 0.76209,-0.44252 1.45019,-0.99949 2.01657,-1.6773 0.67973,-0.72767 1.38472,-1.42782 1.96333,-2.24393 0.75164,-0.85137 1.351,-1.82321 2.11547,-2.66564 0.70435,-0.9979 1.4343,-1.97606 2.09274,-3.00598 0.57162,-0.87259 1.05149,-1.79505 1.60165,-2.68178 0.41907,-0.71283 0.86095,-1.40501 1.05948,-2.22162 0.40951,-1.05897 0.84072,-2.10732 1.29635,-3.14686 0.39177,-0.89097 0.80154,-1.78471 1.02699,-2.73373 0.27064,-0.84694 0.63142,-1.66854 0.74002,-2.55814 0.18642,-0.81571 0.46886,-1.56808 0.54832,-2.40069 0.14912,-0.75126 0.23021,-1.46618 0.15462,-2.24608 -0.009,-1.22602 -0.0321,-2.45507 0.0753,-3.67783 0.41321,-2.91278 1.85399,-4.55218 4.99744,-4.16844 1.17526,0.32063 2.2933,0.80385 3.47134,1.11883 1.18905,0.35155 2.41286,0.60345 3.60982,0.92754 1.22261,0.30483 2.44605,0.60676 3.66349,0.92782 0.86278,0.23586 1.80547,0.18927 2.6515,0.52557 0.75159,0.11707 1.54285,0.21785 2.29953,0.39297 0.26995,0.10233 0.0618,0.0364 0.65411,0.0364 0.87164,0 1.74328,-1e-5 2.61492,-1e-5 1.58157,-10e-6 3.16314,-2e-5 4.74472,-2e-5 1.39327,2e-5 2.78654,6e-5 4.17982,4.7e-4 1.33544,4.7e-4 2.67088,0.001 4.00632,0.003 1.06001,9.2e-4 2.12013,0.003 3.18,-0.0169 1.43962,-0.034 2.87945,-0.0952 4.31232,-0.24502 1.6877,-0.17102 3.3729,-0.3158 5.06878,-0.36926 1.20233,-0.11998 2.3723,-0.40233 3.56885,-0.55843 1.27865,-0.18942 2.53146,-0.51321 3.80798,-0.7163 1.73105,-0.40671 3.43224,-0.93793 5.17881,-1.28266 1.40535,-0.33572 2.79442,-0.71932 4.16183,-1.18973 1.58013,-0.50067 3.10302,-1.18642 4.7206,-1.57978 1.64966,-0.52221 3.30366,-1.03167 4.94603,-1.57458 1.14298,-0.38153 2.27251,-0.80152 3.44398,-1.09266 1.10203,-0.36152 2.21708,-0.68233 3.32225,-1.03624 1.20682,-0.3781 2.43487,-0.68641 3.63984,-1.06949 1.00015,-0.31729 2.03158,-0.52866 3.01165,-0.90348 1.07277,-0.44817 2.14002,-0.90414 3.20266,-1.37739 1.2671,-0.48752 2.51673,-1.01131 3.75278,-1.57314 1.22539,-0.56275 2.46369,-1.0887 3.64347,-1.74503 1.33227,-0.75509 2.76914,-1.28828 4.10634,-2.03847 1.27048,-0.6155 2.49606,-1.32 3.76419,-1.94068 0.97361,-0.46545 1.96382,-0.89385 2.92711,-1.38259 0.76682,-0.41747 1.48414,-0.88435 2.18784,-1.40561 0.89356,-0.63049 1.81278,-1.22654 2.70859,-1.85416 0.97474,-0.70199 1.95028,-1.37933 2.78794,-2.25095 1.00191,-0.7975 1.91195,-1.70822 2.92528,-2.49386 0.9048,-0.77825 1.68446,-1.69404 2.50336,-2.5596 0.64041,-0.73138 1.26934,-1.48029 1.82662,-2.27518 0.5342,-0.78462 1.10387,-1.54503 1.63622,-2.33045 0.5103,-0.90842 1.14568,-1.73009 1.60511,-2.66767 0.41083,-0.64836 0.75419,-1.31943 1.00043,-2.06742 0.2915,-0.61099 0.45538,-1.27158 0.42932,-1.94943 0.004,-0.92994 0.0161,-1.86066 -0.0258,-2.78997 -0.0348,-0.51659 -0.0561,-1.05356 -0.27846,-1.53026 -0.42002,-0.68234 -0.97335,-1.25594 -1.56847,-1.78882 -0.66058,-0.55799 -1.31713,-1.14934 -1.89497,-1.78089 0.0441,-0.0273 0.15378,0.002 0.14776,-0.0492 -0.007,-0.0626 -1.70314,-0.0347 -1.87664,-0.0395 -1.20643,-0.002 -2.41298,-0.007 -3.61931,0.01 -0.83003,0.02 -1.66386,0.0445 -2.48256,0.19554 -0.77843,0.15833 -1.55888,0.32787 -2.32323,0.53608 -1.35031,0.65037 -2.41507,1.77441 -3.69784,2.54031 -3.63427,2.27142 -6.84655,-2.86823 -3.21228,-5.13965 z"
         id="path2984"
         style="fill:#000000;fill-opacity:1;stroke:none"
         inkscape:connector-curvature="0" />
      <path
         d="m 318.16648,652.52514 c -1.22938,1.28685 -2.45814,2.57145 -3.74249,3.80399 -0.89186,0.77335 -1.79643,1.52761 -2.68215,2.30574 -0.75484,0.52192 -1.43458,1.13718 -2.14485,1.7149 -0.51781,0.46883 -1.0082,0.96554 -1.51917,1.44316 -0.85047,0.76961 -1.78491,1.44114 -2.73358,2.08333 -0.9721,0.69925 -2.06671,1.19642 -3.0763,1.8335 -0.35748,0.49869 -2.52617,0.9902 -2.7925,1.37059 -0.71514,0.3343 -1.29869,0.72136 -1.91693,1.17787 -0.95826,0.61499 -1.97034,1.12772 -2.9746,1.65893 -0.84719,0.39647 -1.74298,0.66548 -2.60103,1.03649 -0.82716,0.30102 -1.64989,0.60219 -2.45565,0.95971 -0.96197,0.38275 -1.88849,0.84679 -2.83152,1.27383 -1.396,0.6025 -2.80573,1.16287 -4.26467,1.59388 -1.1986,0.29151 -2.39064,0.60758 -3.56921,0.97074 -1.00323,0.21743 -1.95557,0.58582 -2.95029,0.8351 -0.90818,0.38459 -1.90286,0.45158 -2.84356,0.70412 -1.14344,0.31883 -2.31845,0.47058 -3.49906,0.55907 -1.08179,0.0643 -2.16598,0.0632 -3.24925,0.0643 -0.86628,-0.0762 -1.68724,0.0418 -2.53442,0.18329 -1.13489,0.19586 -2.28494,0.26135 -3.43412,0.29844 -1.04244,0.0249 -2.08527,0.0221 -3.12792,0.0215 -1.13151,-0.001 -2.26302,-0.002 -3.39452,-0.003 -1.22388,-4.2e-4 -2.44776,-4.7e-4 -3.67164,-4.9e-4 -1.21054,-10e-6 -2.42109,10e-6 -3.63163,10e-6 -1.21442,10e-6 -2.42885,10e-6 -3.64327,10e-6 -1.2411,0.0659 -2.45678,-0.0478 -3.6735,-0.28464 -0.75974,-0.15011 -1.53463,-0.18093 -2.30645,-0.20537 -1.10417,-0.004 -2.18161,-0.27671 -3.27389,-0.40654 -1.15844,-0.096 -2.29254,-0.36382 -3.44647,-0.50139 -1.12623,-0.24065 -2.25628,-0.44174 -3.4035,-0.5449 -0.81176,-0.0286 -1.60797,-0.20752 -2.40453,-0.35176 -4.21704,-0.76415 -3.13637,-6.72795 1.08067,-5.9638 l 0,0 c 0.62471,0.11327 1.24416,0.27092 1.88205,0.28041 1.20281,0.11352 2.40285,0.27513 3.57776,0.56355 1.15378,0.14261 2.28954,0.39511 3.44616,0.50136 0.91571,0.11328 1.82097,0.33131 2.74002,0.3654 1.09432,0.0368 2.19084,0.0985 3.26715,0.31396 0.83807,0.16346 1.65147,0.23818 2.51453,0.17281 1.21441,0 2.42883,-10e-6 3.64324,-10e-6 1.21059,-1e-5 2.42118,-2e-5 3.63178,-1e-5 1.22468,2e-5 2.44937,6e-5 3.67406,4.8e-4 1.1319,4.8e-4 2.2638,10e-4 3.3957,0.003 0.97767,6e-4 1.95549,0.003 2.93298,-0.0184 0.87868,-0.027 1.75879,-0.0689 2.62675,-0.21863 1.16992,-0.19538 2.33815,-0.33394 3.52714,-0.26611 0.93896,-8.8e-4 1.87866,10e-4 2.8166,-0.0484 0.85904,-0.0593 1.71123,-0.17046 2.54086,-0.41182 0.94512,-0.21242 1.90461,-0.35048 2.8163,-0.69761 0.87628,-0.19368 1.70435,-0.57072 2.5895,-0.73601 1.20968,-0.37274 2.43222,-0.70329 3.66299,-0.9988 1.18719,-0.33601 2.31936,-0.81901 3.45566,-1.29493 0.9825,-0.44481 1.94941,-0.925 2.95076,-1.32628 0.83798,-0.35127 1.68044,-0.6937 2.53763,-0.99403 0.68713,-0.2751 1.3791,-0.54497 2.07535,-0.791 0.74184,-0.38838 1.48971,-0.77053 2.21405,-1.18333 0.76319,-0.55734 1.54493,-1.07937 2.39374,-1.49414 0.88178,-0.49306 1.82112,-0.8372 2.70549,-1.31762 0.96047,-0.5897 1.97555,-1.08549 2.90586,-1.72377 0.70923,-0.46162 1.3916,-0.97094 2.02572,-1.53069 0.64071,-0.51025 1.15035,-1.18592 1.80399,-1.68607 0.65612,-0.50716 1.24968,-1.10759 1.95022,-1.55222 0.821,-0.70717 1.63507,-1.41971 2.4696,-2.11132 1.14282,-1.09595 2.2319,-2.2408 3.33657,-3.37467 2.7891,-3.25396 7.39089,0.69043 4.60179,3.94439 z"
         id="path2986"
         style="fill:#000000;fill-opacity:1;stroke:none"
         inkscape:connector-curvature="0" />
      <path
         d="m 230.36511,634.06667 c 0,1.79837 0,3.59674 0,5.39511 0,1.17352 0,2.34704 0,3.52056 0,1.18582 0,2.37164 0,3.55747 -0.0738,1.26793 -0.32571,2.51389 -0.42329,3.77953 -0.005,1.30714 -0.23305,2.58234 -0.614,3.82736 -0.27698,0.5761 -0.37571,1.17674 -0.42977,1.80464 -0.22486,0.99628 -0.39491,2.00456 -0.63612,2.99641 -0.25955,0.8297 -0.39245,1.6823 -0.6512,2.51336 -0.19217,0.61284 -0.22128,1.25731 -0.25235,1.89401 -0.13944,1.04494 -0.36039,2.07272 -0.45513,3.12357 -0.22513,1.014 -0.40719,2.03706 -0.63506,3.0501 -0.3198,1.04771 -0.63956,2.09621 -0.96398,3.1432 -0.37195,1.22364 -0.88001,2.40266 -1.48097,3.5297 -0.46038,0.91937 -0.954,1.82014 -1.4749,2.70773 -0.66542,0.96174 -1.31884,1.89556 -2.12874,2.74256 -0.56126,0.74994 -1.22278,1.44198 -1.94139,2.05704 -0.63909,0.57485 -1.29204,1.13301 -1.96438,1.66906 -0.92558,0.68201 -1.85001,1.33866 -2.87939,1.85683 -0.6929,0.37667 -1.37198,0.76774 -2.04179,1.18144 -0.74736,0.41365 -1.49732,0.8165 -2.24669,1.22441 -0.84818,0.4213 -1.73745,0.73755 -2.60046,1.12016 -1.04986,0.62629 -2.22617,0.93367 -3.41982,1.13456 -1.14717,0.15542 -2.30677,0.15944 -3.46216,0.16447 -1.01776,2.8e-4 -2.03552,-0.004 -3.05328,-0.006 -1.00847,-0.002 -2.01694,-0.002 -3.02541,-0.002 -1.12949,0.005 -2.25346,0.0279 -3.37736,-0.0881 -1.18542,-0.15323 -2.29156,-0.58527 -3.38821,-1.0364 -1.11465,-0.45318 -2.1264,-1.07939 -3.10841,-1.76548 -0.79019,-0.62587 -1.52478,-1.31288 -2.1906,-2.06903 -0.77698,-0.99103 -1.41252,-2.07339 -2.05304,-3.15379 -0.64798,-1.1886 -1.19075,-2.43318 -1.73625,-3.67159 -0.54595,-0.79125 -0.4688,-2.33681 -0.94866,-3.10015 -0.44173,-0.93828 -0.65049,-1.9553 -0.93041,-2.94735 -0.27606,-1.06972 -0.46869,-2.16193 -0.77305,-3.22429 -0.31747,-1.34699 -0.31357,-2.73359 -0.30514,-4.10845 0.0129,-1.03565 0.0234,-2.07131 0.0284,-3.10703 0.004,-1.13387 0.005,-2.26775 0.005,-3.40163 0.0626,-1.00896 0.33063,-1.98361 0.42951,-2.98793 0.18942,-0.97463 0.41102,-1.93681 0.50625,-2.92628 0.0691,-1.03213 0.0545,-2.06111 0.16803,-3.08957 0.18193,-0.80563 0.30718,-1.61592 0.36394,-2.43925 0.003,-1.13541 0.23536,-2.24956 0.3803,-3.37159 0.28312,-1.18036 0.46186,-2.38115 0.71446,-3.56684 0.21402,-1.04004 0.48236,-2.0653 0.72933,-3.09766 0.33419,-1.23444 0.76127,-2.42155 1.29563,-3.58261 0.61671,-1.20915 1.28845,-2.39045 1.88358,-3.61054 0.64914,-1.23026 1.33824,-2.43984 2.02191,-3.6514 0.41861,-0.94884 0.89749,-1.85772 1.44741,-2.73761 0.26644,-0.6824 0.73966,-1.26975 1.01182,-1.94687 0.43468,-0.81074 0.94409,-1.57478 1.43676,-2.34638 0.19103,-0.35295 0.45763,-0.65631 0.68803,-0.98357 2.50521,-3.47725 7.42278,0.0657 4.91757,3.5429 l 0,0 c -0.54546,0.7487 -0.0581,0.003 -0.56247,0.80246 -0.41734,0.46851 -0.61289,1.07196 -0.98666,1.54566 -0.42755,0.88297 -0.92834,1.72299 -1.36755,2.60151 -0.50186,0.80077 -0.89968,1.64786 -1.30938,2.50576 -0.62904,1.10896 -1.2552,2.22053 -1.85902,3.34303 -0.57906,1.16974 -1.20245,2.31729 -1.81622,3.46903 -0.37051,0.80505 -0.67834,1.61332 -0.91019,2.47278 -0.24391,1.00131 -0.50453,1.99427 -0.70777,3.00532 -0.25443,0.99177 -0.31268,2.03416 -0.61709,3.01788 -0.13247,1.01013 -0.35059,2.00488 -0.34537,3.02662 -0.0717,0.95803 -0.18105,1.91337 -0.40766,2.84892 -0.19363,0.30591 0.0345,2.35329 -0.13899,2.84944 -0.10273,0.99081 -0.24319,1.98066 -0.50794,2.94288 -0.0844,0.79137 -0.17415,1.60075 -0.3973,2.36525 -2.6e-4,1.14315 -5.7e-4,2.2863 -0.005,3.42944 -0.005,1.03897 -0.0153,2.07789 -0.0284,3.1168 -0.006,0.82563 -0.022,1.6564 0.0921,2.47627 0.27844,1.05093 0.51144,2.11376 0.75859,3.17211 0.22141,0.78518 0.36994,1.59233 0.72119,2.33347 0.3575,0.96042 0.57754,1.94888 0.87524,2.92534 0.44303,1.01625 0.89492,2.03221 1.40105,3.01804 0.45069,0.7622 0.89076,1.53157 1.40144,2.25325 0.34072,0.39508 0.71639,0.75657 1.10617,1.09455 0.61503,0.43234 1.22554,0.84782 1.93606,1.12352 0.62083,0.2557 1.22539,0.54327 1.89701,0.63531 0.83094,0.0503 1.7114,0.0304 2.56269,0.0329 1.01231,2e-4 2.02462,4.8e-4 3.03693,0.002 1.00504,0.002 2.01008,0.006 3.01513,0.006 0.84617,-0.003 1.69495,-7.2e-4 2.53747,-0.0896 0.69477,-0.0947 1.31086,-0.31566 1.91431,-0.68975 0.71952,-0.31872 1.45439,-0.59295 2.17288,-0.91021 0.65391,-0.34997 1.30749,-0.69389 1.95376,-1.05525 0.85266,-0.52183 1.71529,-1.02105 2.60087,-1.48616 0.64931,-0.23993 1.12046,-0.80177 1.71926,-1.13005 0.67685,-0.53904 1.32549,-1.10597 1.97491,-1.67743 0.37961,-0.26006 0.955,-1.0822 1.33388,-1.50406 0.41556,-0.43228 0.83446,-1.00359 1.28224,-1.62602 0.50092,-0.84362 0.96138,-1.70438 1.40192,-2.58048 0.47491,-0.72068 0.70137,-1.60963 0.99764,-2.41144 0.30024,-0.90421 0.54906,-1.82911 0.84924,-2.73195 0.2144,-0.71373 0.2107,-1.493 0.49214,-2.19172 0.0923,-0.96441 0.21623,-1.92799 0.43692,-2.87241 0.0615,-1.14565 0.16726,-2.29467 0.52139,-3.39317 0.23794,-0.75315 0.32509,-1.54934 0.58981,-2.30426 0.12644,-0.64182 0.22491,-1.34259 0.44799,-1.97135 0.11058,-1.09529 0.29236,-2.18471 0.73311,-3.20241 0.18722,-0.71835 0.325,-1.54047 0.30257,-2.33782 0.0913,-1.10354 0.24452,-2.1982 0.40379,-3.29375 0,-1.18583 0,-2.37165 0,-3.55747 0,-1.17352 0,-2.34704 0,-3.52056 0,-1.79837 0,-3.59674 0,-5.39511 0,-4.28571 6.06092,-4.28571 6.06092,0 z"
         id="path2988"
         style="fill:#000000;fill-opacity:1;stroke:none"
         inkscape:connector-curvature="0" />
      <path
         d="m 173.29633,664.0938 c -1.5808,-0.8299 -3.12689,-1.72705 -4.67647,-2.61421 -1.01844,-0.34755 -1.76531,-1.25113 -2.72582,-1.68034 -0.83318,-0.52894 -1.57797,-1.17781 -2.35207,-1.78677 -0.80559,-0.67375 -1.6217,-1.34062 -2.4939,-1.92757 -0.91267,-0.6454 -1.76122,-1.36481 -2.61336,-2.08642 -0.72862,-0.5221 -1.43606,-1.06596 -2.16098,-1.59158 -0.90146,-0.60378 -1.84057,-1.15046 -2.73332,-1.76941 -0.98987,-0.83725 -2.02665,-1.61769 -2.96959,-2.5086 -0.91226,-0.81463 -1.82155,-1.62876 -2.65526,-2.52424 -0.81403,-0.77071 -1.58078,-1.58634 -2.36823,-2.38269 -0.81303,-0.72174 -1.47168,-1.58699 -2.26121,-2.3306 -0.71529,-0.75493 -1.46192,-1.47623 -2.14453,-2.26156 -0.81272,-0.80233 -1.55341,-1.66996 -2.3126,-2.52375 -0.56351,-0.72556 -1.20284,-1.38221 -1.79172,-2.08651 -0.66882,-0.87534 -1.3861,-1.71303 -2.0105,-2.62097 -0.38428,-0.58392 -0.84105,-1.09836 -1.28807,-1.62983 -0.61506,-0.7886 -1.21074,-1.5937 -1.74435,-2.44075 -0.36966,-0.56798 -0.82077,-1.06122 -1.25738,-1.57508 -0.7398,-0.92539 -1.40313,-1.91525 -1.96425,-2.95835 -0.39584,-0.99155 -0.91135,-1.92433 -1.31151,-2.91367 -0.20012,-0.85663 -0.56419,-1.36295 -0.93345,-2.11876 -0.30921,-0.80185 -0.81675,-1.45581 -1.24847,-2.18873 -0.50824,-0.68905 -0.89967,-1.45402 -1.37933,-2.16218 -0.5044,-0.8108 -1.14432,-1.49247 -1.81206,-2.16733 -0.83476,-0.93615 -1.68824,-1.85358 -2.53995,-2.77365 -0.8685,-0.90548 -1.64298,-1.88704 -2.41846,-2.87109 -0.86343,-1.11776 -1.6064,-2.3305 -2.54439,-3.38891 -0.77956,-0.9153 -1.62411,-1.76888 -2.41519,-2.67644 -0.66589,-0.8697 -1.46329,-1.55537 -2.34262,-2.19048 -1.01776,-0.62021 -2.04496,-1.22501 -3.07873,-1.81847 -1.00102,-0.61224 -2.04676,-1.14544 -3.07471,-1.71045 -1.10819,-0.56565 -2.23247,-1.09887 -3.34046,-1.66485 -0.93974,-0.48431 -1.90966,-0.89681 -2.86389,-1.35024 -0.77986,-0.42371 -1.61747,-0.55517 -2.46468,-0.76753 -1.0361,-0.28821 -2.09682,-0.42732 -3.13135,-0.72212 -0.80864,-0.22396 -1.65809,-0.23844 -2.49144,-0.26977 -1.45411,-0.0303 -2.89332,-0.27382 -4.34024,-0.408 -1.31717,-0.14928 -2.58205,-0.52853 -3.85765,-0.86512 -0.94828,-0.1874 -1.90723,-0.26707 -2.85653,-0.45759 -1.02903,-0.1513 -2.04268,-0.36524 -3.05969,-0.58186 -0.96098,-0.17741 -1.88764,-0.48423 -2.85606,-0.62551 -0.86267,-0.10439 -1.73302,-0.11113 -2.60074,-0.11968 -1.07983,-0.11275 -2.14104,-0.33063 -3.22332,-0.42504 -1.38714,-0.14685 -2.68068,-0.64267 -3.95864,-1.16925 -1.24711,-0.52093 -2.39893,-1.18701 -3.42905,-2.06082 -1.00553,-0.78661 -1.8154,-1.78802 -2.60532,-2.78237 -0.79535,-1.04469 -1.47969,-2.1739 -2.14397,-3.30545 -0.86586,-1.07732 -1.48088,-2.31507 -2.03989,-3.57054 -0.53,-1.2482 -0.96513,-2.53985 -1.34845,-3.84053 -0.42709,-1.66372 -0.50853,-3.36873 -0.33698,-5.07048 0.22616,-1.50823 0.80604,-2.90149 1.52443,-4.23338 0.49,-1.25984 1.36018,-2.26648 2.30919,-3.20168 0.85667,-0.9953 1.77148,-1.9347 2.79492,-2.75742 0.68233,-0.63504 1.5004,-1.09324 2.23469,-1.65464 0.91975,-0.59401 1.86897,-1.14116 2.84256,-1.64174 1.31122,-0.60651 2.71982,-0.9419 4.0843,-1.40168 1.16211,-0.42954 2.4132,-0.50344 3.58556,-0.89054 1.40775,-0.4529 2.86473,-0.68396 4.33399,-0.8066 1.23603,-0.0779 2.45528,-0.31072 3.68901,-0.43431 1.40235,-0.13035 2.81174,-0.13715 4.21887,-0.14681 1.49381,-0.006 2.98763,-0.003 4.48144,-0.002 1.44489,10e-4 2.88978,0.002 4.33467,0.002 1.16274,1.8e-4 2.32547,1.5e-4 3.48821,1.5e-4 1.11206,-0.0987 2.27485,0.15092 3.37667,-0.0434 1.03345,-0.17141 2.0705,-0.28466 3.09748,-0.49024 0.98738,-0.13704 1.94323,-0.3382 2.90596,-0.58312 1.06645,-0.35248 2.113,-0.7663 3.15777,-1.18125 1.39053,-0.56345 2.79873,-1.09008 4.07888,-1.88388 0.94845,-0.57093 1.93254,-1.08195 2.83179,-1.73127 0.53245,-0.52664 1.12198,-0.99566 1.60345,-1.57539 0.90959,-0.82014 1.71813,-1.73302 2.5737,-2.60561 0.68319,-0.81288 1.45291,-1.55431 2.11206,-2.38645 1.02386,-1.33327 2.15535,-2.5633 3.38842,-3.70351 1.23476,-1.3142 2.648,-2.43193 4.03894,-3.57154 0.51512,-0.47775 1.02469,-0.96659 1.56649,-1.41457 0.31294,-0.25874 0.81109,-0.5472 1.05623,-0.90599 0.75782,-0.73681 1.47864,-1.50514 2.20698,-2.26917 0.72767,-0.92364 1.69404,-1.62025 2.4684,-2.49754 0.43012,-0.58858 1.49178,-1.35525 1.7744,-1.96759 0.65549,-1.01392 1.35849,-1.98796 2.14252,-2.90661 0.95817,-1.18922 1.93703,-2.36163 2.96952,-3.48826 0.9306,-1.07152 1.95008,-2.05934 2.90417,-3.10966 0.93071,-1.01808 1.8764,-2.01777 2.75991,-3.07723 1.43875,-1.60559 3.06039,-3.02848 4.73827,-4.37642 2.09464,-1.62882 4.26569,-3.16423 6.47711,-4.63125 2.33594,-1.48552 4.6062,-3.06789 6.92374,-4.58236 1.71968,-1.10069 3.32884,-2.36385 5.04143,-3.47276 1.35024,-0.80508 2.63339,-1.70884 3.96812,-2.53757 1.33447,-0.81848 2.66489,-1.6464 4.03128,-2.41362 1.7604,-1.11098 3.63619,-2.02034 5.50795,-2.92482 1.63713,-0.90566 3.35618,-1.62601 5.08842,-2.32189 1.39737,-0.3954 2.73779,-0.94623 4.11746,-1.39336 1.27086,-0.35338 2.53717,-0.73229 3.78774,-1.15221 1.74828,-0.50075 3.51889,-0.92964 5.2923,-1.33362 2.8405,-0.68717 5.74231,-1.05629 8.61917,-1.55205 3.69622,-0.55753 7.38588,-1.16014 11.09133,-1.65427 2.0972,-0.19075 4.15492,-0.64436 6.24707,-0.87164 2.63659,-0.19101 5.2841,-0.16191 7.92605,-0.1681 2.93166,-0.003 5.86333,10e-4 8.79499,0.004 1.51206,0.002 3.02411,0.002 4.53617,0.003 1.93058,-0.0263 3.85365,-0.0133 5.77755,0.15587 1.88627,0.1274 3.76051,0.33927 5.63661,0.56757 1.74348,0.15602 3.47984,0.38306 5.204,0.68544 1.86221,0.28056 3.6818,0.76283 5.5225,1.1503 1.57602,0.3309 3.1619,0.61691 4.73781,0.94726 1.57536,0.27613 3.09981,0.75485 4.63461,1.19427 1.93889,0.54615 3.81399,1.2872 5.74665,1.85045 1.48413,0.33693 2.92058,0.85319 4.40682,1.17805 1.78768,0.42178 3.57559,0.83671 5.35142,1.30606 1.72057,0.42672 3.36747,1.07781 5.04817,1.62926 1.38098,0.48065 2.73491,1.03593 4.10054,1.55883 1.32554,0.48605 2.62797,1.00418 3.86333,1.69066 1.06203,0.65781 2.12266,1.31463 3.17706,1.98384 0.94007,0.60512 1.89958,1.17779 2.81304,1.82377 0.68013,0.37549 1.27537,1.08435 1.87328,1.47114 0.65004,0.48118 1.35768,0.82614 2.03024,1.28966 0.0709,0.0479 0.14551,0.0908 0.21277,0.14373 0.44113,0.34723 0.80787,0.6813 1.22057,1.05858 0.16369,0.14964 0.14336,0.13106 0.09,0.0417 0.35762,0.21788 0.69809,0.45931 1.0608,0.66883 3.68137,2.19428 0.5782,7.40052 -3.10317,5.20625 l 0,0 c -0.42381,-0.25654 -0.83785,-0.52271 -1.25494,-0.78957 -0.66592,-0.46866 -1.21687,-1.00846 -1.82589,-1.4535 -0.4827,-0.30278 -1.18786,-0.66551 -1.71421,-1.07146 -0.75041,-0.51911 -1.39665,-1.1448 -2.14815,-1.65922 -0.78755,-0.61031 -1.69837,-1.04647 -2.51235,-1.61914 -0.9568,-0.61197 -1.92599,-1.20176 -2.88607,-1.80959 -0.97209,-0.5547 -2.02508,-0.91446 -3.06762,-1.31705 -1.27515,-0.49021 -2.54098,-1.00623 -3.82849,-1.46181 -1.56368,-0.51836 -3.09598,-1.12581 -4.69767,-1.52522 -1.70393,-0.45039 -3.41955,-0.84771 -5.13478,-1.25303 -1.6091,-0.36981 -3.17719,-0.88752 -4.78228,-1.27537 -1.91787,-0.56656 -3.78587,-1.28201 -5.70729,-1.83904 -1.40081,-0.40107 -2.78801,-0.84816 -4.22761,-1.09283 -1.56993,-0.34099 -3.15739,-0.60835 -4.72858,-0.94531 -1.77817,-0.37642 -3.53548,-0.84389 -5.33501,-1.1138 -1.6123,-0.29434 -3.24141,-0.4817 -4.87234,-0.63569 -1.81127,-0.22084 -3.61975,-0.42711 -5.44134,-0.54699 -1.74499,-0.15772 -3.48946,-0.14974 -5.24098,-0.13197 -1.51365,-2.6e-4 -3.02731,-9.7e-4 -4.54096,-0.003 -2.92501,-0.003 -5.85001,-0.007 -8.77501,-0.004 -2.43259,0.006 -4.86945,-0.0188 -7.29827,0.13402 -2.03988,0.21159 -4.04261,0.68613 -6.089,0.8527 -3.62936,0.48256 -7.24257,1.07624 -10.86311,1.61945 -2.77341,0.47694 -5.57105,0.83121 -8.30978,1.49046 -1.58208,0.35504 -3.15776,0.74735 -4.7212,1.17467 -1.27367,0.41893 -2.5557,0.81969 -3.84929,1.17227 -1.24505,0.39079 -2.44371,0.9161 -3.70889,1.24629 -1.60434,0.64228 -3.19357,1.31104 -4.70746,2.15372 -1.76142,0.85089 -3.52754,1.70354 -5.181,2.75439 -1.28875,0.72102 -2.54505,1.49831 -3.79816,2.27601 -1.31373,0.81548 -2.57548,1.70737 -3.90558,2.49822 -1.71193,1.06506 -3.26361,2.38239 -4.98567,3.43676 -2.30653,1.50667 -4.56543,3.08165 -6.8899,4.56009 -2.06169,1.36574 -4.08576,2.79521 -6.03866,4.31144 -1.36734,1.08941 -2.68194,2.24492 -3.87238,3.5281 -0.93936,1.12475 -1.93771,2.19254 -2.92904,3.27134 -0.96674,1.06211 -1.99652,2.06343 -2.93878,3.1474 -1.00801,1.07457 -1.92244,2.22923 -2.85858,3.36497 -0.69018,0.74273 -1.19583,1.61982 -1.7772,2.44599 -0.6818,0.90239 -1.46839,1.71842 -2.24228,2.54243 -0.83305,0.88677 -1.7709,1.66661 -2.56004,2.59484 -0.71501,0.73059 -1.39527,1.49428 -2.13917,2.19758 -1.00899,1.02985 -2.18875,1.86199 -3.21587,2.87703 -1.30053,1.0653 -2.62249,2.10657 -3.7727,3.34015 -1.02555,0.94084 -1.94963,1.96927 -2.79715,3.07517 -0.80472,0.97288 -1.6737,1.8911 -2.5144,2.833 -0.79303,0.77433 -1.48815,1.64889 -2.34411,2.36178 -0.81521,0.89346 -1.68935,1.72641 -2.6278,2.49116 -1.0349,0.72416 -2.1274,1.35263 -3.2199,1.98425 -1.58269,0.92906 -3.25154,1.66494 -4.96412,2.3202 -1.28691,0.50671 -2.57208,1.0196 -3.89695,1.4199 -1.06237,0.26786 -2.12416,0.49874 -3.20986,0.65187 -1.20671,0.23971 -2.4246,0.38522 -3.64014,0.57307 -1.33725,0.11666 -2.67711,0.073 -4.01888,0.0775 -1.16312,10e-6 -2.32625,3e-5 -3.48938,-1.4e-4 -1.44622,-2.8e-4 -2.89243,-7.4e-4 -4.33865,-0.002 -1.47838,-10e-4 -2.95677,-0.004 -4.43514,0.001 -1.22132,0.008 -2.44479,0.01 -3.66238,0.11741 -1.27211,0.12435 -2.52844,0.3743 -3.80484,0.44466 -1.03397,0.0766 -2.0573,0.24112 -3.04657,0.5618 -1.13051,0.33233 -2.28785,0.51867 -3.4196,0.83728 -1.08963,0.36709 -2.20159,0.66053 -3.2778,1.06336 -0.73728,0.36526 -1.44149,0.79294 -2.14104,1.22427 -0.67789,0.45489 -1.34856,0.91723 -1.97062,1.46161 -0.89248,0.59823 -1.49421,1.56332 -2.26489,2.29613 -0.54347,0.52486 -0.96679,0.99563 -1.21274,1.74657 -0.34612,0.64097 -0.66628,1.28397 -0.83187,2.00142 -0.1088,0.91526 -0.0641,1.82697 0.13072,2.73244 0.29833,1.04931 0.66025,2.08593 1.07699,3.09333 0.45566,1.05982 1.01638,2.0431 1.72763,2.95721 0.5171,0.89648 1.06215,1.78675 1.67759,2.61828 0.54302,0.7106 1.11736,1.41821 1.8309,1.96419 0.48501,0.48129 1.14109,0.70944 1.74289,1.01456 0.7153,0.29484 1.42047,0.61619 2.19131,0.73631 0.91048,0.0835 1.86419,0.15767 2.74257,0.40106 1.15528,0.012 2.31386,0.031 3.46027,0.18974 1.08389,0.17161 2.13299,0.4655 3.2041,0.68945 0.99507,0.21394 1.98318,0.42099 2.99153,0.56769 1.06616,0.21749 2.15851,0.2564 3.21407,0.54119 0.95004,0.25432 1.8857,0.54665 2.86275,0.68763 1.33785,0.12561 2.66893,0.34966 4.01198,0.38632 1.32071,0.0526 2.6535,0.12603 3.92961,0.50076 0.97508,0.28331 1.99421,0.37278 2.96814,0.6777 1.21133,0.32595 2.43379,0.57945 3.55876,1.16438 1.00834,0.48035 2.03409,0.91935 3.02821,1.43148 1.15569,0.59762 2.33803,1.14266 3.49151,1.74512 1.06564,0.58577 2.14862,1.14091 3.18739,1.77397 1.2107,0.70284 2.42889,1.39466 3.60273,2.1584 1.24686,0.90578 2.38911,1.90754 3.35528,3.11597 0.80213,0.92023 1.65895,1.78476 2.44844,2.7149 0.96493,1.14603 1.82829,2.36747 2.70356,3.58261 0.67961,0.86321 1.35005,1.72833 2.1175,2.51772 0.79675,0.87398 1.61479,1.72854 2.39286,2.61931 0.93716,0.95107 1.81682,1.94413 2.54475,3.06776 0.54557,0.8285 1.02862,1.69437 1.59434,2.51024 0.46196,0.88429 1.11555,1.66906 1.47049,2.61525 0.33895,0.83653 0.92776,1.57901 1.0936,2.49043 0.28853,0.80273 0.7815,1.51959 1.04745,2.33205 0.31396,0.67568 0.80007,1.26762 1.23651,1.86544 0.60303,0.75393 1.26676,1.46099 1.77197,2.29107 0.3545,0.62351 0.82964,1.17492 1.25127,1.75065 0.56068,0.71315 1.18121,1.38022 1.67194,2.14845 0.41989,0.75748 1.12023,1.3598 1.60602,2.07754 0.55514,0.66583 1.16107,1.28606 1.69302,1.97128 0.76028,0.87218 1.52129,1.73728 2.34057,2.5558 0.5516,0.6401 1.16548,1.21718 1.73915,1.83693 0.83886,0.80249 1.56508,1.70172 2.4202,2.48744 0.82884,0.8547 1.66467,1.69985 2.51326,2.53639 0.72032,0.83008 1.61397,1.49204 2.39823,2.25887 0.67935,0.71149 1.54861,1.22162 2.25141,1.91131 0.90251,0.67322 1.93305,1.16132 2.83216,1.84097 0.81188,0.63067 1.65921,1.21114 2.47407,1.83947 0.69947,0.59235 1.37959,1.19419 2.13331,1.71939 0.96752,0.67457 1.90799,1.38954 2.8045,2.15628 0.54279,0.427 1.07155,0.8659 1.61525,1.29003 0.91874,0.54939 1.75329,1.22579 2.72913,1.68223 1.52534,0.87534 3.04841,1.75837 4.60604,2.57447 3.74639,2.08133 0.80295,7.37952 -2.94344,5.29819 z"
         id="path2990"
         style="fill:#000000;fill-opacity:1;stroke:none"
         inkscape:connector-curvature="0" />
      <path
         d="m 332.97105,511.84358 c 0.26458,-1.88841 0.82766,-3.81044 2.18564,-5.21902 0.26789,-0.27787 0.58596,-0.50257 0.87894,-0.75385 1.76218,-1.20612 3.70445,-1.27223 5.67745,-0.62294 1.57622,0.59562 2.52038,1.8737 3.3448,3.26469 0.59322,1.20052 0.9859,2.47902 1.1804,3.80027 0.12429,1.45913 -0.28996,2.77855 -1.02515,4.021 -0.72348,1.15572 -1.75858,1.94697 -2.94023,2.58796 -1.1673,0.49135 -2.4794,0.91683 -3.76897,0.78608 -0.37794,-0.0383 -0.74515,-0.14832 -1.11772,-0.22248 -1.91572,-0.69678 -2.89568,-2.18811 -3.62332,-3.99162 -0.38093,-1.14132 -0.8349,-2.37711 -0.72635,-3.60607 0.0354,-0.40069 0.14951,-0.79049 0.22427,-1.18573 0.48613,-1.59023 1.7227,-2.58816 3.12596,-3.33594 1.61065,-0.71853 3.17669,-0.46021 4.77838,0.0768 1.30271,0.49633 2.34544,1.30118 3.24386,2.34863 1.36406,2.22141 1.15691,3.82833 -0.13772,6.00989 -1.30702,1.54109 -2.32003,2.32683 -4.36983,2.66653 -1.74027,0.0239 -3.07312,-0.78331 -4.24357,-1.98821 -0.91597,-1.02604 -1.55426,-2.16323 -1.9492,-3.47951 -0.48003,-1.75209 0.0321,-3.37147 0.96207,-4.85524 0.17075,-0.21641 0.3415,-0.43282 0.51225,-0.64922 0.0248,-0.0353 0.0958,-0.14352 0.0745,-0.10596 -0.12453,0.21937 -0.35711,0.40108 -0.38441,0.65185 -0.20336,1.86755 -0.0976,2.9042 1.71434,3.68802 0.2089,0.0702 0.31431,0.12914 0.73438,-0.0823 -0.49764,0.43404 -0.279,0.24157 -0.32342,0.64744 -0.0512,0.66702 0.027,-0.083 0.0163,-0.14924 -0.10819,-0.66824 -0.0872,-0.31947 0.21919,0.0555 0.5425,0.49521 1.09741,1.00314 1.62651,1.52327 0.18565,0.14856 0.55061,0.32055 0.9171,0.39928 0.47371,0.0864 0.95589,0.10754 1.43509,0.14552 4.2723,0.33891 3.79301,6.38084 -0.47928,6.04194 l 0,0 c -0.8885,-0.0705 -1.78223,-0.13099 -2.64643,-0.36711 -1.30971,-0.40557 -2.54668,-0.99055 -3.53957,-1.96147 -0.63376,-0.72693 -1.48253,-1.26221 -2.07637,-2.03323 -1.12858,-1.45832 -1.81218,-2.90032 -1.42481,-4.79694 0.307,-1.4547 0.85777,-2.80961 2.00931,-3.80989 1.47378,-1.29801 2.79605,-1.85683 4.78239,-1.54324 1.09009,0.33783 1.95813,0.44497 2.55472,1.78291 0.62727,1.40677 0.34506,2.79187 -0.59809,3.84674 -0.0123,0.0138 0.004,-0.0368 0.006,-0.0553 -0.44677,0.70548 -0.0762,0.19125 -0.14066,0.11218 -0.0312,-0.0383 -0.0429,0.17924 -0.0629,0.13409 -0.0651,-0.14704 0.0718,-0.77984 -0.0672,-0.41727 -0.0232,0.0606 0.016,0.12887 0.0239,0.19331 0.0393,0.38291 0.28276,0.61624 0.5127,0.9243 0.0345,0.041 0.11255,0.0702 0.10359,0.12314 -0.007,0.0419 -0.14781,-0.0822 -0.11513,-0.055 0.0725,0.0603 0.32893,0.13902 0.23614,0.15579 -0.33403,0.0604 -0.64176,-0.50626 -1.02165,-0.10393 -0.33826,0.12386 -0.65023,0.45542 -0.31154,0.16563 0.10869,-0.093 0.18999,-0.21941 0.311,-0.29569 0.0357,-0.0225 -0.0234,0.0812 -0.0352,0.12181 10e-4,0.37313 0.0586,0.77895 0.3542,1.03231 0.0631,0.0492 0.26602,0.17754 0.20268,0.12864 -0.24612,-0.19 -0.41838,-0.29406 -0.55387,-0.40409 -0.90032,-0.30253 -0.46219,-0.0498 -0.19566,-0.37369 -0.7046,0.47067 -0.0119,0.0307 0.0433,-0.43213 0.004,-0.15166 0.0217,-0.30349 0.0133,-0.45499 -0.001,-0.0225 -0.0421,-0.076 -0.0415,-0.0535 0.0133,0.46195 0.19022,0.91825 0.32778,1.35166 0.27555,0.683 0.21046,0.56228 -0.38531,0.41671 -0.89398,0.0248 0.2292,0.045 0.48028,-0.0993 0.13645,-0.0576 0.24194,-0.19792 0.38912,-0.21442 0.0882,-0.01 -0.82408,0.8449 0.17634,-0.19761 0.0273,-0.0284 -0.029,0.0732 -0.0435,0.10985 0.45114,-0.7577 -0.0657,0.5718 0.20753,-0.31892 0.29536,0.4405 -0.21767,-0.75193 -0.34877,-1.15755 -0.0225,-0.0697 -0.005,-0.1491 -0.0462,-0.21471 -0.21442,-0.39438 -0.70391,-0.72118 -0.0738,-0.57172 -0.36967,-0.14635 0.072,-0.0437 0.007,-0.31547 -0.16841,-0.57162 -0.87004,1.90665 -0.74459,1.78385 -0.42645,4.26444 -6.45729,3.66136 -6.03084,-0.60309 z"
         id="path2992"
         style="fill:#000000;fill-opacity:1;stroke:none"
         inkscape:connector-curvature="0" />
      <path
         d="m 336.4765,641.84635 c 0.0968,1.77003 0.42157,3.51112 0.67579,5.26206 0.20584,0.99773 0.70519,1.90093 1.08168,2.84099 0.46017,1.0566 0.8676,2.13964 1.21628,3.23826 0.30336,0.92579 0.71568,1.80613 1.11063,2.69467 0.40727,0.65462 0.77701,1.3461 1.27161,1.94166 0.55915,0.83207 1.09347,1.6747 1.70878,2.46861 0.74395,0.81644 1.3684,1.74326 2.14013,2.53368 0.37071,0.33342 0.81753,0.66586 1.30253,0.81919 0.19319,0.10315 0.38637,0.2063 0.57956,0.30945 3.74622,2.08162 0.80238,7.37958 -2.94385,5.29797 l 0,0 c -0.0393,-0.026 -0.0786,-0.0521 -0.11795,-0.0781 -1.19338,-0.56519 -2.35392,-1.25392 -3.26354,-2.22633 -0.86912,-0.95648 -1.6665,-1.97424 -2.50114,-2.96075 -0.61195,-0.79992 -1.18176,-1.62801 -1.7164,-2.47853 -0.7474,-1.00356 -1.43724,-2.05061 -2.0006,-3.17052 -0.48722,-1.10272 -0.98897,-2.19952 -1.35697,-3.35017 -0.28778,-0.95941 -0.67327,-1.89037 -1.0655,-2.81076 -0.53459,-1.38187 -1.25906,-2.7037 -1.44351,-4.20011 -0.26595,-1.83928 -0.60213,-3.66949 -0.70836,-5.52817 -0.42645,-4.26444 5.60439,-4.86753 6.03083,-0.60308 z"
         id="path3002"
         style="fill:#000000;fill-opacity:1;stroke:none"
         inkscape:connector-curvature="0" />
      <path
         d="m 354.45532,634.86508 c 0.86282,1.57414 1.87004,3.05991 2.85806,4.55637 0.52679,1.01337 1.17023,1.89041 1.98145,2.68196 0.84583,0.82637 1.7742,1.55651 2.67155,2.32568 1.0806,0.78012 2.01719,1.73297 3.04474,2.5794 0.68555,0.53577 1.40107,1.14325 2.21735,1.47391 0.77258,0.44061 1.57705,0.80861 2.34763,1.25467 0.36142,0.18202 0.70841,0.38827 1.0711,0.56803 3.82222,1.93857 1.08067,7.34399 -2.74154,5.40543 l 0,0 c -0.47203,-0.24246 -0.93485,-0.49723 -1.40194,-0.74897 -0.62058,-0.37756 -1.29005,-0.64369 -1.9108,-1.02127 -1.2246,-0.61702 -2.3952,-1.3628 -3.43813,-2.25596 -1.05879,-0.87414 -2.02917,-1.84859 -3.13918,-2.65893 -0.99886,-0.8605 -2.0379,-1.67369 -2.97451,-2.60454 -1.10103,-1.09187 -2.05803,-2.28425 -2.78634,-3.66099 -1.01482,-1.53837 -2.05256,-3.06467 -2.93909,-4.68251 -2.27142,-3.63428 2.86822,-6.84656 5.13965,-3.21228 z"
         id="path3004"
         style="fill:#000000;fill-opacity:1;stroke:none"
         inkscape:connector-curvature="0" />
      <path
         d="m 361.31787,621.8117 c 1.24159,1.42818 2.64429,2.70836 4.00804,4.0181 1.23613,1.18558 2.54214,2.30407 3.92186,3.31947 1.27793,0.86126 2.61301,1.62861 3.99577,2.30749 0.9238,0.46575 1.90694,0.73572 2.88934,1.03487 1.04611,0.29797 2.0912,0.60302 3.12234,0.94999 0.87956,0.34078 1.82222,0.41477 2.75428,0.47602 0.75647,0.0335 0.37872,0.0198 1.13327,0.0412 4.2839,0.12466 4.1076,6.18301 -0.1763,6.05835 l 0,0 c -0.90103,-0.0268 -0.44374,-0.009 -1.37185,-0.0528 -1.46388,-0.10356 -2.93242,-0.27435 -4.31656,-0.79337 -0.96127,-0.34877 -1.95938,-0.5914 -2.93678,-0.88927 -1.28497,-0.40821 -2.57704,-0.77984 -3.7873,-1.39346 -1.69998,-0.84707 -3.35289,-1.78428 -4.91429,-2.86902 -1.58065,-1.17713 -3.09318,-2.44945 -4.51208,-3.81803 -1.50504,-1.44545 -3.04777,-2.86271 -4.41153,-4.4451 -2.7891,-3.25395 1.81269,-7.19834 4.60179,-3.94439 z"
         id="path3006"
         style="fill:#000000;fill-opacity:1;stroke:none"
         inkscape:connector-curvature="0" />
      <path
         d="m 491.50271,523.01913 c -1.40113,-0.59446 -2.8052,-1.17323 -4.29654,-1.49454 -0.0523,0.005 -0.16065,-0.0363 -0.15689,0.0161 0.004,0.0565 0.10608,0.0418 0.16178,0.0522 0.35489,0.0661 0.18786,0.0264 -0.2189,0.31694 -0.0506,0.0361 -0.0892,0.0866 -0.13383,0.12987 -0.71115,0.4823 -1.2783,1.12033 -1.89046,1.71437 -0.17623,0.38316 -0.87931,0.64554 -0.92222,1.11146 -0.0904,0.55355 -0.1098,1.11312 -0.12826,1.67277 -0.0238,1.15843 -0.0145,2.31724 -0.011,3.47582 -0.008,0.9076 0.36497,1.5953 0.76292,2.36988 0.32847,0.7316 0.88648,1.18869 1.51004,1.64799 0.61242,0.33622 1.25271,0.62852 1.93586,0.787 0.33462,0.0441 0.6768,0.12693 1.01656,0.12002 0.16564,-0.003 -0.14903,-0.0781 -0.15003,-0.0781 0.0893,-0.0575 -0.0449,-0.0531 -0.0315,-0.0776 0.20429,-0.37271 0.42866,-0.74383 0.63725,-1.12086 0.32524,-0.77125 0.74646,-1.49664 1.12046,-2.24497 0.19524,-0.62447 0.21494,-1.30312 0.25172,-1.9543 -0.13409,-0.44557 -0.36497,-0.88284 -0.56549,-1.33133 -0.47571,-0.95375 -0.97371,-1.89635 -1.44275,-2.85356 0.004,-0.071 -0.51877,-0.88206 -0.64105,-0.83218 -0.0319,0.013 0.0214,0.0655 0.0321,0.0983 -0.12664,-0.0635 -0.25329,-0.12702 -0.37993,-0.19053 -0.81868,-0.29786 -1.68468,-0.39584 -2.54758,-0.4601 -0.0969,0.0246 -0.34227,0.18789 -0.38653,0.28334 -0.0146,0.0316 0.0691,0.008 0.10367,0.0116 -0.031,0.0631 -0.062,0.12619 -0.0929,0.18928 -0.46523,0.89129 -0.7408,1.85392 -0.92397,2.83745 0.0503,-0.0696 -0.31105,1.94028 0.11782,1.72007 0.6032,0.77442 1.33912,1.41576 2.05352,2.08087 0.0887,0.1031 0.7124,0.56359 0.87943,0.30182 -0.009,-0.0177 -0.0409,-0.04 -0.0261,-0.0531 0.13487,-0.11923 0.31488,-0.17532 0.46491,-0.2748 0.50897,-0.33749 0.9715,-0.67899 1.41652,-1.09786 0.543,-0.52936 0.80103,-1.15905 0.91061,-1.89007 -0.0771,-0.0552 -0.0663,0.15148 -0.0969,0.11256 -0.0605,-0.077 -0.0543,-0.18851 -0.0914,-0.27911 -0.12339,-0.30139 -0.36451,-0.62942 -0.51664,-0.90376 0.0341,-10e-4 -1.18121,-1.56642 -0.92813,-1.14809 0.43521,0.30947 -0.91138,0.0971 -1.01643,0.0938 -0.31326,-0.0121 -0.64925,-0.0199 -0.95303,0.0881 -0.12881,0.0458 0.27724,-0.0232 0.40283,-0.0772 0.0965,-0.0802 0.16441,-0.22983 0.28941,-0.24068 0.0303,-0.003 -0.0552,0.10189 -0.19972,0.59173 -0.12653,0.42892 -0.20096,0.86175 -0.26774,1.30297 0.0582,0.50616 0.0776,0.94686 0.369,1.3706 0.40206,0.54126 1.0258,0.91525 1.62925,1.20392 -0.039,0.0131 0.11458,-0.044 0.083,-0.0531 -0.66438,-0.19292 -1.25295,0.0891 -1.76501,0.51034 -0.003,-0.14651 0.62434,-1.53405 0.29984,-0.98406 -0.0675,0.31546 0.14649,0.67222 -0.17784,0.0644 -0.34599,-0.64837 -0.0104,0.0184 0.0738,0.12794 0.33875,0.50486 1.06623,0.22057 1.25866,0.31233 0.54266,0.25874 -0.44043,0.0725 -0.1423,0.12549 0.10135,-0.0722 0.2027,-0.14447 0.30404,-0.21671 0.0277,-0.0147 0.0553,-0.0294 0.083,-0.0442 -10e-4,0.037 -0.0393,0.12337 -0.004,0.11097 0.14239,-0.0507 0.10371,-0.24274 0.10474,-0.38628 -0.29147,-1.25022 -1.43723,-1.78031 -2.63598,-1.52349 0.0435,-0.0452 0.10573,-0.078 0.13054,-0.13566 0.009,-0.0204 -0.0618,0.003 -0.064,-0.0189 -0.0135,-0.13051 0.10569,-0.24544 0.11555,-0.37627 10e-4,-0.0183 -0.0483,-0.003 -0.0531,0.0142 -0.0441,0.16039 -0.0574,0.32773 -0.086,0.49159 0.17685,0.50965 0.35371,1.0193 0.53056,1.52895 -2.71812,-3.31348 1.96787,-7.15748 4.68598,-3.84399 l 0,0 c 0.27657,0.63122 0.55314,1.26244 0.82971,1.89365 -0.012,0.40322 0.019,0.81003 -0.036,1.20967 -0.23536,1.71018 -1.33789,3.23718 -2.6696,4.26527 -0.31282,0.18433 -0.6026,0.41505 -0.93847,0.55297 -1.84501,0.75764 -3.92711,0.33825 -5.10522,-1.35199 -0.2434,-0.3492 -0.37394,-0.76479 -0.56091,-1.14719 -0.46744,-2.4647 -0.0894,-3.94359 1.65522,-5.81195 1.9484,-1.38568 3.86184,-1.91164 6.06971,-0.61671 0.29343,0.23758 0.61473,0.44436 0.88029,0.71273 1.05383,1.06502 1.62187,2.57794 1.81298,4.02962 -0.0427,1.51073 -0.51206,2.85337 -1.19695,4.19093 -0.24481,0.33604 -0.43283,0.72193 -0.73442,1.00811 -1.61243,1.53005 -3.62908,1.5842 -5.56713,0.72627 -1.66943,-0.90861 -3.21973,-2.0406 -4.16688,-3.73476 -0.81515,-1.63765 -1.18748,-3.33471 -0.99504,-5.17049 0.31419,-1.8788 0.80381,-3.71742 2.09459,-5.18215 0.27872,-0.22238 0.53772,-0.47203 0.83616,-0.66714 1.17781,-0.77003 2.61614,-0.94984 3.99021,-0.90723 1.55986,0.0574 3.10591,0.20244 4.437,1.10973 1.05093,0.86425 1.89492,1.89491 2.59889,3.06268 0.89595,1.6158 1.62087,3.25943 1.35465,5.16252 -0.42355,2.02496 -1.28817,3.82804 -2.82537,5.25919 -1.71753,1.49329 -3.6121,2.81265 -5.95922,2.96413 -1.86736,-0.10125 -3.57183,-0.59395 -4.94824,-1.93315 -1.22821,-1.15222 -2.4897,-2.29078 -3.32701,-3.77904 -0.89394,-2.01912 -1.08595,-3.43014 -0.65516,-5.61512 0.38042,-1.88767 0.96195,-3.73676 2.05136,-5.34705 1.63912,-2.00548 3.0478,-2.8318 5.67459,-2.85262 1.66468,0.13692 3.32405,0.40064 4.85085,1.11708 1.66092,0.87166 2.86085,1.93246 3.65727,3.65718 0.4913,1.01962 1.03601,2.01269 1.52645,3.03294 0.59417,1.33021 1.13727,2.67485 1.08216,4.16535 -0.092,1.4848 -0.24203,2.99079 -0.90313,4.34787 -0.41997,0.81371 -0.85634,1.61299 -1.22981,2.44951 -0.8302,1.45534 -1.65951,2.85415 -3.2047,3.67028 -0.34909,0.14766 -0.68553,0.32974 -1.04726,0.44298 -1.32513,0.41481 -2.71363,0.23353 -4.0403,-0.0515 -1.42768,-0.38943 -2.80305,-0.95914 -4.03171,-1.79517 -1.35124,-1.01771 -2.5233,-2.19973 -3.27675,-3.73864 -0.82786,-1.61691 -1.42425,-3.27387 -1.43068,-5.1171 -0.004,-1.23597 -0.0138,-2.47221 0.0148,-3.70798 0.0538,-1.45477 0.16512,-2.91723 0.80633,-4.25193 0.56851,-1.02062 1.27408,-1.90072 2.11903,-2.7053 0.7629,-0.69616 1.43591,-1.49857 2.3051,-2.07524 1.60401,-1.2172 3.35452,-2.10839 5.43773,-1.68243 1.68488,0.38525 3.31811,0.9388 4.89091,1.65957 4.06579,1.35526 2.14916,7.10515 -1.91663,5.74989 z"
         id="path3008"
         style="fill:#000000;fill-opacity:1;stroke:none"
         inkscape:connector-curvature="0" />
      <path
         d="m 490.29742,519.83988 c 1.93326,-0.87168 3.77536,-1.92259 5.67326,-2.86772 1.24438,-0.69078 2.56105,-1.27749 3.72166,-2.10953 0.68662,-0.38865 1.20332,-0.96776 1.77292,-1.49849 0.83265,-0.59299 1.41483,-1.37397 2.07218,-2.13747 0.54105,-0.65942 0.76043,-1.49442 1.05107,-2.27911 0.28421,-1.06712 0.638,-2.11661 0.85956,-3.19974 0.0369,-0.15288 0.0738,-0.30576 0.11066,-0.45864 1.0187,-4.16289 6.9059,-2.72223 5.8872,1.44066 l 0,0 c -0.0226,0.0902 -0.0452,0.18043 -0.0678,0.27065 -0.29552,1.37165 -0.70738,2.71479 -1.10825,4.05819 -0.5456,1.46244 -1.0864,2.93525 -2.14149,4.12499 -0.81157,0.94039 -1.58634,1.91418 -2.58712,2.66611 -0.80295,0.67446 -1.48812,1.50329 -2.42676,2.0152 -1.419,0.94988 -2.92439,1.75223 -4.44205,2.53259 -1.97691,0.98446 -3.89422,2.08321 -5.91346,2.98084 -3.91633,1.7406 -6.3779,-3.79794 -2.46157,-5.53853 z"
         id="path3010"
         style="fill:#000000;fill-opacity:1;stroke:none"
         inkscape:connector-curvature="0" />
      <path
         d="m 499.03394,525.32624 c 4.52122,-0.26766 9.01797,-0.83899 13.50062,-1.47302 2.21721,-0.3162 4.40269,-0.80731 6.30494,-2.02211 0.93555,-0.64851 1.73623,-1.44861 2.45365,-2.32558 0.34401,-0.41704 0.67019,-0.85217 0.98081,-1.29486 0.0102,-0.0146 -0.0365,0.0142 -0.0438,0.0304 -0.11218,0.24952 -0.20754,0.50626 -0.31131,0.75939 0.96864,-4.17481 6.87272,-2.80495 5.90408,1.36986 l 0,0 c -0.4389,1.14961 -1.03797,2.06476 -1.85375,2.99129 -1.14907,1.38558 -2.44309,2.63993 -3.95417,3.63194 -2.64921,1.59558 -5.56211,2.47113 -8.63186,2.86088 -4.59739,0.64993 -9.20928,1.23331 -13.84589,1.51179 -4.27091,0.35591 -4.77425,-5.68407 -0.50333,-6.03998 z"
         id="path3012"
         style="fill:#000000;fill-opacity:1;stroke:none"
         inkscape:connector-curvature="0" />
      <path
         d="m 480.89919,527.92649 c -2.0801,0.83978 -4.12283,1.77086 -6.21664,2.57605 -1.36086,0.56826 -2.71778,1.1227 -4.12387,1.56886 -1.91404,0.55 -3.85885,0.97549 -5.80078,1.41221 -2.35089,0.60593 -4.72638,1.1055 -7.08246,1.69028 -0.32223,0.0756 -0.64445,0.15112 -0.96668,0.22667 -4.1728,0.97729 -5.55489,-4.92394 -1.38209,-5.90123 l 0,0 c 0.29627,-0.0693 0.59255,-0.1386 0.88883,-0.20789 2.39949,-0.59549 4.81834,-1.1056 7.21291,-1.72114 1.7726,-0.39843 3.54791,-0.78497 5.29783,-1.27617 1.29291,-0.40991 2.53418,-0.936 3.78929,-1.45186 2.06824,-0.78747 4.07687,-1.72395 6.13269,-2.5432 3.97919,-1.59168 6.23016,4.03574 2.25097,5.62742 z"
         id="path3014"
         style="fill:#000000;fill-opacity:1;stroke:none"
         inkscape:connector-curvature="0" />
      <path
         d="m 484.60044,537.47849 c -1.84011,0.80736 -3.62225,1.73776 -5.30311,2.83895 -1.03293,0.72204 -2.06555,1.4539 -2.9749,2.33094 -0.6239,0.61326 -1.15993,1.31501 -1.6391,2.04616 -0.66435,0.81423 -1.19321,1.72044 -1.78116,2.58775 -0.51329,0.85341 -0.97429,1.74891 -1.31876,2.68459 -0.0326,0.11609 -0.0653,0.23217 -0.0979,0.34825 0.0141,-0.003 0.0282,-0.005 0.0423,-0.008 -0.55795,4.24924 -6.56729,3.46018 -6.00934,-0.78906 l 0,0 c 0.21349,-1.22646 0.0701,-0.65455 0.40584,-1.72164 0.53484,-1.36544 1.17504,-2.69641 1.97116,-3.93027 0.58868,-0.85466 1.1002,-1.7635 1.76536,-2.56447 0.75588,-1.10178 1.56053,-2.17958 2.53892,-3.0964 1.18888,-1.08373 2.45069,-2.07813 3.7921,-2.96838 1.95596,-1.26588 4.00987,-2.3663 6.14699,-3.29724 3.91634,-1.74059 6.37791,3.79794 2.46157,5.53853 z"
         id="path3016"
         style="fill:#000000;fill-opacity:1;stroke:none"
         inkscape:connector-curvature="0" />
      <path
         d="m 324.8012,618.64699 c 1.54071,0.6559 3.38327,1.39303 4.32325,2.88847 0.24637,0.39197 0.39563,0.83717 0.59345,1.25575 -0.0609,0.75703 0.16283,1.59482 -0.18281,2.27108 -0.94603,1.85094 -2.60138,2.08489 -4.327,1.70536 -4.14009,-1.10771 -2.57355,-6.96267 1.56654,-5.85496 l 0,0 c -1.25185,-0.0318 -2.25742,0.45737 -2.80609,1.75204 -0.25126,0.59291 -0.0244,1.28767 -0.0365,1.9315 0.13576,0.21968 0.25387,0.45132 0.4073,0.65905 0.0306,0.0414 0.12932,0.12633 0.13498,0.0751 0.0215,-0.19453 -1.38777,-0.87329 -1.58971,-0.93355 -4.06578,-1.35526 -2.14915,-7.10515 1.91663,-5.74988 z"
         id="path3018"
         style="fill:#000000;fill-opacity:1;stroke:none"
         inkscape:connector-curvature="0" />
      <path
         d="m 345.04316,612.84489 c 0.0903,0.29198 0.18069,0.58397 0.27103,0.87595 1.2634,4.09526 -4.52818,5.88197 -5.79157,1.78671 l 0,0 c -0.0764,-0.24868 -0.1529,-0.49735 -0.22935,-0.74603 -1.35526,-4.06579 4.39463,-5.98242 5.74989,-1.91663 z"
         id="path3022"
         style="fill:#000000;fill-opacity:1;stroke:none"
         inkscape:connector-curvature="0" />
      <path
         d="m 339.27962,626.91605 c 0.81179,-0.43644 0.38626,-0.19756 1.27327,-0.72248 3.69716,-2.16758 6.76257,3.061 3.06541,5.22857 l 0,0 c -1.24985,0.72768 -0.62372,0.3843 -1.87711,1.03244 -3.91634,1.7406 -6.37791,-3.79794 -2.46157,-5.53853 z"
         id="path3024"
         style="fill:#000000;fill-opacity:1;stroke:none"
         inkscape:connector-curvature="0" />
      <path
         d="m 328.72471,634.04949 c 0.57908,0.46211 1.2007,0.86582 1.8041,1.29499 3.49145,2.48538 -0.0234,7.42304 -3.51485,4.93767 l 0,0 c -0.75091,-0.53502 -1.52608,-1.03752 -2.23364,-1.63087 -3.25396,-2.7891 0.69043,-7.39089 3.94439,-4.60179 z"
         id="path3026"
         style="fill:#000000;fill-opacity:1;stroke:none"
         inkscape:connector-curvature="0" />
      <path
         d="m 351.27134,623.17 c 0.39294,-1.30954 0.3875,-2.31818 0.19977,-3.62574 -0.59383,-4.24437 5.40862,-5.08418 6.00246,-0.8398 l 0,0 c 0.26768,1.94974 0.25218,3.86897 -0.28565,5.78034 -0.9297,4.18366 -6.84629,2.86886 -5.91658,-1.3148 z"
         id="path3028"
         style="fill:#000000;fill-opacity:1;stroke:none"
         inkscape:connector-curvature="0" />
    </g>
  </g>
</svg>
